<?xml version="1.0" standalone="no"?>
<!DOCTYPE svg PUBLIC "-//W3C//DTD SVG 1.1//EN" 
  "http://www.w3.org/Graphics/SVG/1.1/DTD/svg11.dtd">
<svg width="600" height="600" version="1.1"
     xmlns="http://www.w3.org/2000/svg">

    <path name="A" d="M180.18,95.66a164.76,164.76,0,0,1,67.44-73.14l-.24-.15C188.05-12.89,111.15-5.23,58.72,38.92,10.54,79.48-10.72,145.61,5.24,206.55,21.68,269.3,75.72,318.16,139.84,328c37.44,5.76,75.35-2.27,107.31-20.67a184,184,0,0,1-19.09-13C168.54,247.88,148.45,164.21,180.18,95.66Z" />

    <path name="AB" d="M314.59,234.35C346.32,165.77,326.23,82,266.7,35.47a182.76,182.76,0,0,0-19.08-12.95,164.76,164.76,0,0,0-67.44,73.14c-31.73,68.55-11.64,152.22,47.88,198.73a184,184,0,0,0,19.09,13C276.1,290.68,300.17,265.5,314.59,234.35Z" />
    
    <path name="B" d="M489.52,123.31C473.09,60.56,419,11.71,354.92,1.84c-37.51-5.77-75.38,2.26-107.3,20.68a182.76,182.76,0,0,1,19.08,13c59.53,46.57,79.62,130.3,47.89,198.88-14.42,31.15-38.49,56.33-67.44,73l.23.14C306.66,342.76,383.7,335,436.05,291,484.22,250.38,505.49,184.26,489.52,123.31Z" />

</svg>