<!DOCTYPE svg PUBLIC "-//W3C//DTD SVG 1.1//EN" 
  "http://www.w3.org/Graphics/SVG/1.1/DTD/svg11.dtd">
<svg width="600" height="600" version="1.1"
     xmlns="http://www.w3.org/2000/svg">


  <path name="A" d="M245.48,163.65 C295.15999999999997,135.24,358.35,133.5,410.48,163.15 C410.48,17.689999999999998,227.62,-54.849999999999994,127.17000000000002,48.78 C97.60637254800088,79.48572315765114,80.97017135623855,120.37633861112843,80.69999999999999,163 C132.79,133.5,195.87,135.28,245.48,163.65 Z"></path>
  

  <path name="AB" d="M245.48,163.65 C265.98482922650413,175.35071658222373,283.68451057391144,191.3916927358709,297.34,210.65000000000003 C317.1167381398102,238.67263559639187,327.6692607009291,272.1617772519337,327.53,306.46000000000004 C377.33,277.46000000000004,410.32,222.87000000000003,410.53,163.16000000000003 C358.35,133.5,295.16,135.24,245.48,163.65 Z"></path>
  

  <path name="ABC" d="M297.34,210.64 C283.68451057391144,191.38169273587093,265.9848292265042,175.34071658222373,245.48000000000008,163.64000000000004 C224.97517077349573,175.3407165822237,207.27548942608848,191.38169273587084,193.61999999999998,210.63999999999993 C173.90067915741278,238.58185150600798,163.35097965119357,271.96069538921637,163.42999999999992,306.16 C196.36839559977395,325.1123399600832,234.80746476616142,332.2029735066145,272.33999999999986,326.2499999999999 C291.7973087442354,323.09840901119935,310.50674217775105,316.38620060417617,327.53,306.44999999999993 C327.66926070092916,272.1517772519341,317.1167381398103,238.6626355963923,297.3400000000002,210.64000000000033 Z"></path>
  

  <path name="AC" d="M93.17,227 C107.21794927814594,260.40615666028646,131.9208815291156,288.22771984017874,163.43000000000006,306.13 C163.35097965119198,271.93069538922424,173.90067915740963,238.55185150601537,193.61999999999546,210.6100000000064 C207.2754894260885,191.35169273587098,224.97517077349576,175.31071658222382,245.4799999999999,163.61000000000013 C195.87,135.28,132.79,133.5,80.7,163 C80.50654585753983,184.9552100334401,84.7479545239569,206.72346622034627,93.1699999999988,226.9999999999972 Z"></path>
  

  <path name="B" d="M410.48,163.15 C410.32,222.86,377.33000000000004,277.43,327.48,306.45000000000005 C327.5075510369584,345.2254135957665,313.88474242117763,382.7731028314584,288.9999999999933,412.51000000000795 C276.73828069428026,427.04804922094576,262.0053468200524,439.3063106084869,245.48000000000008,448.71999999999997 C285.96,471.86999999999995,335.7,477.65999999999997,380.90999999999997,462.38 C514.69,417.19,528.84,233.94,410.48,163.15 Z"></path>
  

  <path name="C" d="M202,412.51 C177.03670435878144,382.7023010647858,163.3954245548801,345.04004490837593,163.48,306.15999999999997 C111.85285297704098,277.09807561589696,80.13330468616894,222.24218610972105,80.70000000000002,163 L80.48,163.12 C-37.879999999999995,233.91000000000003,-23.72999999999999,417.12,110.05000000000001,462.35 C155.26000000000002,477.63,205.05,471.84000000000003,245.48000000000002,448.69 C228.97362508562514,439.2781399367784,214.25517562609227,427.0308192963483,201.99999999999994,412.50999999999993 Z"></path>
  

  <path name="BC" d="M289,412.51 C313.9027680236643,382.7800563931147,327.543534381912,345.2316608583171,327.53,306.45 C310.506742177751,316.38620060417634,291.7973087442354,323.09840901119946,272.3399999999999,326.25000000000006 C234.80746476616153,332.2029735066146,196.368395599774,325.1123399600833,163.43,306.1600000000001 C163.35943458227348,345.0463064906471,177.01867842685613,382.7092720823372,201.99999999999721,412.5099999999967 C214.267515825451,427.04613125881826,229.00335745954726,439.3039953886281,245.5300000000001,448.7200000000001 C262.0374962047998,439.30147283191957,276.75319194070613,427.0434709318238,288.99999999999994,412.51 Z"></path>
  </svg>