
<!DOCTYPE svg PUBLIC "-//W3C//DTD SVG 1.1//EN" 
  "http://www.w3.org/Graphics/SVG/1.1/DTD/svg11.dtd">
<svg width="700" height="700" version="1.1"
     xmlns="http://www.w3.org/2000/svg">


  <path name="ABD" d="M382.68,399.41 C380.5235860150741,383.6120866694662,376.2589331023377,368.1745812519112,370,353.51 C368.11,355.51,366.2,357.51,364.25,359.51 C348.8,375.15,331.46,390.81,312.36,403.16999999999996 C326.75,412.48999999999995,342.17,419.96999999999997,358.56,424.03 C366.7269049957541,426.1156443743014,375.1315139849687,427.1241974530071,383.5599999999999,427.03 C384.2652763224107,417.8185761936627,383.9702204517117,408.5578453428605,382.68,399.41 Z"></path>
  

  <path name="BCD" d="M362.29,212.43 C344.3846413355459,227.92891967249943,327.6707989297044,244.7530734382196,312.2900000000004,262.75999999999965 C321.8344974201751,273.95556441015333,330.7707052817779,285.65575438210624,339.05999999999966,297.8099999999996 C350.71,314.94,361.77,333.75,369.97,353.51 C393.61,328.2,412.97,298.93,430.33000000000004,269.08 Q434.83000000000004,261.35999999999996,438.94000000000005,253.39999999999998 C431.56736461458263,226.86506645639892,421.5679258164645,201.1311673451281,409.09000000000026,176.58000000000055 C392.744705877779,187.52429144170242,377.11306421472693,199.498529766925,362.2899999999998,212.4300000000003 Z"></path>
  

  <path name="BD" d="M370,353.51 C376.2589331023377,368.1745812519112,380.52358601507405,383.6120866694661,382.68,399.40999999999997 C383.9597778228403,408.572465308476,384.2414267032384,417.8467605844413,383.52,427.07000000000005 C394.10999999999996,426.84999999999997,404.52,424.44,413.74,418.65999999999997 C429.05,409,438.66,392.89,444,376 C455.29,340.09000000000003,450.41,300.06,441.77,264.13 C440.90999999999997,260.56,439.96999999999997,256.99,439,253.43 Q434.88,261.38,430.39,269.11 C413,298.93,393.64,328.2,370,353.51 Z"></path>
  

  <path name="ACD" d="M254.65,353.44 C248.37515486261194,368.135190313499,244.10359388737862,383.6069859718244,241.95000000000013,399.43999999999977 C240.66857178829264,408.62253151224377,240.39026673349886,417.91724972776643,241.12000000000003,427.15999999999997 C251.83288012377963,427.2052549076734,262.48516567683936,425.5513829428447,272.6799999999999,422.26 C286.71476833093027,417.7523874007984,300.0656320572679,411.3427615442779,312.36,403.21000000000004 C295.44,392.21,279.95000000000005,378.7,265.99,365.13 Q260.16,359.42,254.65,353.44 Z"></path>
  

  <path name="CD" d="M409.12,176.58 C421.6082327770165,201.13002200067072,431.61773438307796,226.86395484463475,438.9999999999999,253.39999999999984 C453.4154529931056,225.39081870078502,464.70345124152766,195.87971216896256,472.6599999999998,165.40000000000046 C474.89,156.99,476.82,148.5,478.65999999999997,140 V140 C471.29999999999995,142.89,464.09999999999997,146,457.11999999999995,149.33 C440.4670192748796,157.21166808162002,424.4228314017841,166.32008723874196,409.12000000000006,176.58000000000004 Z"></path>
  

  <path name="ABC" d="M254.65,353.44 C262.84000000000003,333.69,273.89,314.9,285.53000000000003,297.81 C293.83259335921036,285.66019369183573,302.7752118479788,273.96035128678403,312.3199999999997,262.7600000000004 C296.936314885845,244.7557329541458,280.222680220113,227.93178829961994,262.3199999999993,212.42999999999927 C247.4843469150895,199.50535966992936,231.8464968481504,187.53148258962676,215.49999999999986,176.57999999999976 C203.0430071022767,201.1058121245442,193.06360153041845,226.81308246977417,185.7100000000001,253.31999999999988 Q191.92000000000007,265.32,198.87000000000006,277.03 C215,304.11,233.18,330.29,254.65,353.44 Z"></path>
  

  <path name="AC" d="M242,399.41 C244.15359388737846,383.5769859718249,248.42515486261172,368.1051903134995,254.69999999999976,353.41000000000065 C233.18,330.29,215,304.11,198.89,277 Q191.95,265.35,185.73,253.29 C184.04,259.45,182.48999999999998,265.64,181.13,271.84999999999997 C173.31,307.36999999999995,169.54,347.48999999999995,182.82,382.21 C189.32,399.21,200.99,415.08,218.13,422.42999999999995 C225.42382131957007,425.455157287761,233.23393015284793,427.04094895086564,241.13000000000002,427.09999999999997 C240.4156985311759,417.8657449977652,240.70741229664714,408.58119997949046,242,399.40999999999997 Z"></path>
  

  <path name="ABCD" d="M364.25,359.52 C366.2,357.52,368.11,355.52,370,353.52 C361.8,333.76,350.74,314.95,339.09,297.82 C330.8007052817782,285.6657543821067,321.8644974201754,273.9655644101537,312.3200000000004,262.77000000000044 C302.77521184797916,273.9703512867836,293.8325933592107,285.67019369183527,285.5300000000003,297.8199999999996 C273.89,314.90999999999997,262.84,333.7,254.64999999999998,353.45 Q260.16999999999996,359.45,265.98999999999995,365.11 C279.98999999999995,378.68,295.43999999999994,392.22,312.35999999999996,403.19 C331.46,390.82,348.8,375.16,364.25,359.52 Z"></path>
  

  <path name="D" d="M611.79,152.94 C600.5899999999999,137.04,582.79,129.01999999999998,563.91,126.38 C535.12,122.38,505.77,129.31,478.64,139.95 V140 C476.8,148.5,474.87,157,472.64,165.4 C464.68345124152796,195.8797121689619,453.3954529931059,225.3908187007844,438.98000000000036,253.39999999999924 C439.98,256.96,440.89000000000004,260.53000000000003,441.75,264.1 C450.39,300.03000000000003,455.27,340.1,443.98,375.97 C438.67,392.89000000000004,429.06,409.04,413.75,418.66 C404.54,424.44,394.12,426.85,383.53,427.07000000000005 C382.8253702834797,436.25277574927264,380.2275351086472,445.19028208470553,375.9,453.32 C367.65999999999997,468.32000000000005,353.32,478.95000000000005,337.24,484.27000000000004 C329.1792380361689,486.86804528636833,320.78656520313933,488.292644246389,312.31999999999994,488.50000000000006 C350.25,487.7300000000001,386.48,475.7300000000001,419.94,458.34000000000003 S484.3,418.34000000000003,512.13,392.93000000000006 S565.29,338.64000000000004,585.77,306.81000000000006 C605.55,276.05000000000007,622.86,240.37000000000006,624.53,203.22000000000006 C625.3,185.84,622,167.41,611.79,152.94 Z"></path>
  

  <path name="A" d="M248.73,453.32 C244.4192129760021,445.2062460296804,241.82855955803697,436.2904493126626,241.11999999999995,427.13 C233.22393015284788,427.0709489508656,225.41382131957,425.48515728776096,218.11999999999995,422.4599999999999 C200.97999999999996,415.10999999999996,189.30999999999997,399.25,182.80999999999997,382.24 C169.52999999999997,347.52,173.29999999999998,307.4,181.11999999999998,271.88 C182.48,265.67,184.02999999999997,259.48,185.71999999999997,253.32 C172.30439296779997,227.33892081738702,161.58190794184185,200.0535472028941,153.7200000000002,171.89000000000047 C150.81999999999996,161.48999999999998,148.33999999999997,150.89,146.43999999999997,140.14 C119.17999999999996,129.39999999999998,89.63999999999997,122.32,60.679999999999964,126.37999999999998 C41.89,129,24,137,12.84,152.94 C2.66,167.41,-0.67,185.84,0.11,203.22 C1.77,240.37,19.11,276.05,38.87,306.81 C59.349999999999994,338.64,84.6,367.42,112.5,392.93 S171.18,440.93,204.69,458.34000000000003 S274.39,487.73,312.31,488.50000000000006 C303.8467032428195,488.2926573185379,295.4573281909008,486.8680464606649,287.4,484.27 C271.32,479,257,468.29,248.73,453.32 Z"></path>
  

  <path name="AD" d="M375.89,453.32 C380.2175351086472,445.19028208470553,382.8153702834797,436.25277574927264,383.52,427.07 C375.0915139849688,427.1641974530072,366.6869049957542,426.15564437430146,358.5200000000001,424.07 C342.13,420.01,326.71,412.53,312.32,403.21 C300.0256320572679,411.3427615442779,286.67476833093025,417.7523874007984,272.64,422.26 C262.4451656768395,425.5513829428447,251.79288012377975,427.2052549076734,241.08000000000013,427.15999999999997 C241.78855955803706,436.3204493126628,244.37921297600218,445.2362460296806,248.69000000000014,453.3500000000002 C256.93,468.34999999999997,271.28,478.97999999999996,287.36,484.29999999999995 C295.4173281909009,486.8980464606649,303.8067032428196,488.32265731853784,312.27000000000015,488.53 C320.7365652031394,488.3226442463889,329.12923803616894,486.89804528636824,337.19,484.29999999999995 C353.31,479,367.65,468.29,375.89,453.32 Z"></path>
  

  <path name="BC" d="M286.76,72.59 C261.11,100.27000000000001,239.7,131.71,221.69,164.81 Q218.51,170.63,215.52,176.58 C231.86649684815052,187.531482589627,247.50434691508957,199.50535966992953,262.3400000000001,212.43000000000006 C280.24268022011364,227.93178829962068,296.9563148858457,244.75573295414654,312.3400000000007,262.76000000000073 C327.720798929704,244.75307343822004,344.43464133554556,227.9289196724999,362.3399999999995,212.43000000000052 C377.1727331198504,199.49750015911866,392.81442070748705,187.52324220445763,409.1699999999999,176.57999999999998 Q404.34000000000003,167.02,399.12,157.75 C380.68,124.99000000000001,358.68,93.93,332.53,66.85 C326.07,60.14999999999999,319.28,53.849999999999994,312.35999999999996,47.61999999999999 L312.10999999999996,47.37999999999999 C303.19,55.38,294.79,63.91,286.76,72.59 Z"></path>
  

  <path name="C" d="M332.48,66.85 C358.63,93.92999999999999,380.63,124.99,399.07000000000005,157.75 Q404.2900000000001,167.02,409.12000000000006,176.57999999999998 C424.4212693860003,166.30292122041953,440.4654969287351,157.17776680548917,457.11999999999983,149.28000000000014 C464.12000000000006,145.98999999999998,471.30000000000007,142.83999999999997,478.6600000000001,139.94999999999996 C483.12000000000006,105.10999999999996,486.2900000000001,64.59999999999997,468.87000000000006,32.55999999999996 C449.87000000000006,-2.380000000000038,409.87000000000006,-5.2200000000000415,375.80000000000007,7.069999999999961 C351.80000000000007,15.699999999999962,330.9000000000001,30.35999999999996,312.08000000000004,47.37999999999997 L312.33000000000004,47.61999999999997 C319.23,53.84,326,60.15,332.48,66.85 Z"></path>
  

  <path name="B" d="M215.52,176.58 Q218.52,170.64000000000001,221.69,164.81 C239.69,131.71,261.11,100.27,286.76,72.59 C294.76,63.910000000000004,303.19,55.38,312.06,47.38 C287,23.54,254.43,3.29,219.25,0.3 C200.4,-1.3,181.25,3.3,167.48,16.810000000000002 C154.7,29.3,148.41,46.94,145.33,64.19 C140.86,89.31,142.04000000000002,115.05,146.47,140.14 C153.67,142.98,160.7,146.07,167.53,149.27999999999997 C184.17859445921528,157.18296857346235,200.21911946209823,166.30791820002423,215.5200000000003,176.58000000000015 Z"></path>
  

  <path name="AB" d="M185.73,253.32 C193.08360153041838,226.81308246977426,203.06300710227663,201.10581212454431,215.51999999999987,176.5800000000003 C200.21590400370133,166.30748826386974,184.17202267689822,157.18253075925048,167.5199999999994,149.27999999999963 C160.68999999999997,146.06999999999996,153.65999999999997,142.97999999999996,146.45999999999998,140.14 C148.35999999999999,150.88,150.83999999999997,161.48999999999998,153.73999999999998,171.89 C161.59870235017343,200.05316632398691,172.31783191046077,227.3385280024553,185.72999999999956,253.31999999999897 Z"></path>
  </svg>