
<!DOCTYPE svg PUBLIC "-//W3C//DTD SVG 1.1//EN" 
  "http://www.w3.org/Graphics/SVG/1.1/DTD/svg11.dtd">
<svg width="600" height="600" version="1.1"
     xmlns="http://www.w3.org/2000/svg">


  <path name="BD" d="M165.49,380.83 C165.14000000000001,374.44,164.61,368.09,163.86,361.83 C147.53766124136584,361.08994759889106,131.36417849163394,358.38373479086033,115.68999999999991,353.77 C114.69000000000001,353.46999999999997,113.60000000000001,353.15999999999997,112.55000000000001,352.84 C112.41334430100366,359.33933871958754,113.36653794334671,365.8156472966414,115.37000000000015,372.00000000000034 C121.37,390.46,137.01,403,155.3,408.11 C159.1993913608385,409.1879098272378,163.1643031885975,410.012958876485,167.17000000000004,410.58000000000004 V410.53000000000003 C165.75,400.79,166,390.64,165.49,380.83 Z"></path>
  

  <path name="BDE" d="M163.86,361.79 C162.36371674024832,348.603354043904,159.68629798281106,335.5777117889718,155.85999999999999,322.87 C153.42000000000002,314.87,150.52,307.06,147.44000000000003,299.3 C139.94916759988115,304.63257979729434,133.10622071615433,310.8211006671287,127.05000000000011,317.73999999999995 C120.60000000000002,325.28000000000003,115.64000000000003,333.86,113.57000000000002,343.64 C112.95926509466213,346.65664178653924,112.62454921420283,349.72263925154647,112.57000000000005,352.79999999999995 C113.57000000000002,353.12,114.66000000000003,353.43,115.71000000000002,353.73 C131.37771541766864,358.34215092770023,147.54438800856775,361.04834783492026,163.86,361.78999999999996 Z"></path>
  

  <path name="CDE" d="M195,270.32 C184.65,254.73999999999998,175.18,238.41,168.69,220.82999999999998 Q166.79,215.61999999999998,165.24,210.30999999999997 Q156.47,213.99999999999997,147.38,217.20999999999998 C138.67,220.29,129.38,222.76999999999998,121,226.79999999999998 C123.85,240.85999999999999,129.28,254.57999999999998,134.5,267.69 C138.7,278.25,143.25,288.69,147.5,299.3 C155.3790030194283,293.66448254585885,163.54678023564173,288.4440479050097,171.9699999999995,283.6600000000003 C179.59,279.18,187.34,274.81,195,270.32 Z"></path>
  

  <path name="BCDE" d="M163.86,361.79 C167.07000000000002,361.91,170.28,361.94,173.5,361.86 C193.15,361.39,212.5,357.05,231.5,352.32 C229.2871993658253,342.9601064231543,226.55972186138268,333.7294145017542,223.33000000000007,324.67000000000024 C216.41604048148392,306.0826667890177,207.28329398747232,288.3980433390327,196.13000000000014,272.0000000000003 C195.75,271.44,195.38,270.87,195.01,270.31 C187.34,274.8,179.59,279.17,171.93,283.65 C163.5067802356422,288.4340479050094,155.33900301942876,293.65448254585846,147.46000000000038,299.2899999999997 C150.54000000000002,307.04999999999995,153.46,314.87999999999994,155.88,322.85999999999996 C159.70011255694124,335.57159458125994,162.37084089758054,348.6005988796419,163.85999999999993,361.7899999999997 Z"></path>
  

  <path name="AC" d="M307.67,412.16 C302.16753052388606,427.1040019881258,294.7991956064245,441.29300260665747,285.74000000000024,454.3899999999998 C284.62,456.03000000000003,283.47,457.64000000000004,282.31,459.24000000000007 C289.2203028995671,462.1684022092092,296.62631112347225,463.7500703266885,304.13000000000005,463.9000000000001 C323.52,464.4100000000001,340.01,453.3500000000001,351.13,438.1400000000001 C354.061032147634,434.1039777279122,356.62461106841994,429.81349707980837,358.79,425.3200000000003 C349.37,423.3200000000001,340.12,420.2500000000001,330.85,417.67000000000013 C323.14,415.53,315.43,413.67,307.67,412.16 Z"></path>
  

  <path name="ACD" d="M307.67,412.16 C295.9535684244721,409.8256196284199,284.06881546686304,408.4344949153176,272.13,408.0000000000001 C263.24,407.72,254.37,408,245.5,408.53 C248.42314272094052,418.12667570551923,252.45007717709518,427.35171138882686,257.50000000000006,436.02000000000004 C262.31,444.02,268.58,451.34999999999997,276.59,456.26 C278.41637273907384,457.3733639914962,280.317577711162,458.35905022482837,282.28,459.21000000000004 C283.44,457.60999999999996,284.59,456,285.71,454.35999999999996 C294.7774270331556,441.2739452807342,302.1558101251728,427.09508524051904,307.67,412.15999999999997 Z"></path>
  

  <path name="ABCD" d="M272.13,408 C284.06800655671776,408.42460397957575,295.9527520927582,409.8056956808657,307.66999999999996,412.13 C308.76,409.13,309.78000000000003,406.07,310.67,403 C316.16,384.61,318.3,365.3,319.84000000000003,346.21 C309.59652448208067,345.09782063297644,299.3034119323195,344.5037304793262,288.99999999999994,344.43 C269.42,344.43,250.52,347.58,231.57999999999998,352.3 L231.48,352.3 C233.81,361.78000000000003,235.86999999999998,371.35,238.11999999999998,380.85 C240.29999999999998,390.03000000000003,242.57999999999998,399.40000000000003,245.50999999999996,408.54 C254.37,408,263.24,407.75,272.13,408 Z"></path>
  

  <path name="BCD" d="M231.47,352.32 C212.47,357.05,193.15,361.39,173.47,361.86 C170.25,361.94,167.04,361.91,163.82999999999998,361.79 C164.57999999999998,368.09000000000003,165.10999999999999,374.44,165.45999999999998,380.79 C165.99999999999997,390.6,165.71999999999997,400.79,167.12999999999997,410.48 V410.53000000000003 C182.69999999999996,412.79,198.92999999999998,411.66,214.42999999999995,410.68 C224.76999999999995,410.03000000000003,235.10999999999996,409.13,245.42999999999995,408.52 C242.49999999999994,399.38,240.21999999999994,390.01,238.03999999999996,380.83 C235.86,371.37,233.8,361.8,231.47,352.32 Z"></path>
  

  <path name="CE" d="M165.25,210.31 C160.9934571551762,195.15103524579052,158.50359672256639,179.55081806088066,157.83000000000004,163.8199999999999 Q157.62,159.94,157.53,156.03 C152.71441315390268,157.81877789967706,148.12616639907208,160.16828245591802,143.85999999999996,163.03 C135.81168438291738,168.1150567595884,129.20671913852226,175.18491788927724,124.68,183.56 C120.23,192.15,118.68,201.89,119.06,211.48000000000002 C119.32190375336195,216.6280882284322,119.99065650084357,221.7473905104042,121.05999999999995,226.78999999999982 C129.39000000000001,222.79000000000002,138.73000000000002,220.28000000000003,147.44,217.20000000000002 Q156.5,214,165.25,210.31 Z"></path>
  

  <path name="ABD" d="M314.62,165.34 C322.1455089193996,173.81448828500194,330.356633204846,181.65435603452792,339.1700000000002,188.78000000000017 C348.11283594701314,195.78424200654442,357.4011578158712,202.33579638260207,367.00000000000045,208.41000000000022 C370.3878168100314,199.216771820671,372.53016295045313,189.61152758669198,373.37,179.84999999999997 C374.04,170.32999999999998,373,160.59,368.71,151.95 C366.94554091978557,148.39896287310708,364.8067361756617,145.04660433999754,362.33,141.95 L358.71999999999997,143.26999999999998 C343.1875094832843,148.83007611843314,328.3809568990383,156.2400674003903,314.61999999999995,165.34 Z"></path>
  

  <path name="ABDE" d="M314.62,165.34 C312.03000000000003,167.08,309.49,168.88,307,170.77 C291.66,182.44,278.77,196.9,266.39,211.57 C273.92804380890516,218.27679569950206,281.84077549644053,224.55022305852276,290.0899999999995,230.35999999999962 C306.39917127462013,241.50184924837137,324.01419297622,250.5998652235161,342.5399999999999,257.44999999999993 L344.73999999999995,258.28 C348.5199999999999,250.18999999999997,352.41999999999996,242.14999999999998,356.19999999999993,234.04999999999998 S363.88999999999993,217.23,366.9799999999999,208.40999999999997 C357.3879722851091,202.33523499649607,348.1063366473576,195.783688517925,339.1699999999997,188.7799999999998 C330.3566332048458,181.65435603452778,322.1455089193996,173.81448828500191,314.6200000000001,165.3400000000001 Z"></path>
  

  <path name="ABCDE" d="M290.09,230.36 C281.84077549644104,224.5502230585232,273.9280438089056,218.2767956995025,266.39000000000044,211.57000000000036 L266,212 C253.59033545335615,226.97094557949325,239.398594678423,240.37015184830145,223.73999999999975,251.90000000000023 C214.51000000000002,258.6,204.81,264.56,194.98000000000002,270.32 C195.35000000000002,270.88,195.72000000000003,271.45,196.10000000000002,272.01 C207.24213783130304,288.40639948860394,216.3647606503977,306.08756686635604,223.2700000000001,324.67 C226.49972186138262,333.7294145017539,229.22719936582524,342.960106423154,231.43999999999997,352.31999999999977 L231.54000000000002,352.31999999999994 C250.48000000000002,347.5999999999999,269.38,344.44999999999993,288.96000000000004,344.44999999999993 C299.27726526003806,344.53234734330385,309.5837636449549,345.13645233283427,319.83999999999963,346.2599999999999 C319.84000000000003,345.80999999999995,319.91,345.35999999999996,319.95000000000005,344.9099999999999 C321.4028099163558,325.7145582611737,325.4184658357142,306.7999444500585,331.8900000000001,288.66999999999985 C335.62000000000006,278.3099999999999,340.06000000000006,268.2599999999999,344.71000000000004,258.2999999999999 L342.51000000000005,257.4699999999999 C323.993628515567,250.61133659063114,306.38876060396296,241.50664431509543,290.09000000000015,230.36000000000013 Z"></path>
  

  <path name="ACE" d="M165.25,210.31 C177.76225509106186,205.08538292349684,189.82872228786997,198.85148745374897,201.32999999999996,191.67000000000002 C209.27770387256962,186.57988261040092,216.9547785815776,181.0790916884682,224.33000000000064,175.18999999999951 C216.2252016792779,168.79755287307935,207.3859367662743,163.39596637667876,197.99999999999994,159.09999999999997 C189.26,155.28,179.85,152.76,170.24,153.35 C165.89840236358026,153.62094844264715,161.61813201000578,154.51337302462767,157.53,156 Q157.62,159.9,157.83,163.79 C158.50129458403157,179.53090012216794,160.9911759630556,195.14131545265278,165.25000000000014,210.3100000000005 Z"></path>
  

  <path name="ACDE" d="M165.25,210.31 Q166.8,215.62,168.7,220.83 C175.19,238.41000000000003,184.7,254.74,195.01,270.32 C204.84,264.56,214.54,258.59999999999997,223.76999999999998,251.89999999999998 C239.41805750953864,240.36824292891552,253.59964431498383,226.96911165879325,266.00000000000006,211.99999999999994 L266.36,211.57 C259.28000000000003,205.4,252.36,199.01999999999998,245.36,192.79999999999998 C238.61,186.79999999999998,231.66000000000003,180.79999999999998,224.36,175.19 C216.98477858157693,181.0790916884687,209.30770387256894,186.5798826104014,201.3599999999993,191.67000000000047 C189.84909796377735,198.85293234443492,177.77254519148372,205.0868549053752,165.25000000000037,210.30999999999983 Z"></path>
  

  <path name="AD" d="M314.62,165.34 C328.3781177617115,156.26584274432025,343.17774147559027,148.87946067296514,358.6999999999997,143.3400000000001 L362.31,142.02 C358.71086094624184,137.52753354562395,354.5769773819521,133.49103635287312,350.00000000000006,130.00000000000006 C342.47,124.2,333.6,120.22,324,119.59 S305.31,121.48,296.56,125.09 C292.9070921059033,126.59900106980025,289.33255803422855,128.29114745106926,285.85000000000025,130.1599999999999 C290.5,135.85,295.03000000000003,141.65,299.58000000000004,147.46 C304.45,153.57,309.42,159.56,314.62,165.34 Z"></path>
  

  <path name="ADE" d="M266.39,211.57 C278.77,196.9,291.65999999999997,182.44,307,170.76999999999998 C309.49,168.88,312,167.07999999999998,314.62,165.33999999999997 C309.42,159.55999999999997,304.45,153.56999999999996,299.62,147.40999999999997 C295.07,141.59999999999997,290.54,135.79999999999995,285.89,130.10999999999996 C272.21999999999997,137.37999999999997,259.72999999999996,146.99999999999994,247.64999999999998,156.52999999999997 C239.85999999999999,162.67999999999998,232.18999999999997,169.04999999999998,224.35999999999999,175.18999999999997 C231.66,180.75999999999996,238.60999999999999,186.83999999999997,245.35999999999999,192.79999999999995 C252.4,199,259.31,205.4,266.39,211.57 Z"></path>
  

  <path name="BC" d="M464.1,375.5 C458.54575341292195,357.9893997984403,450.0584541471187,341.54906153934246,439.0000000000001,326.8800000000001 C436.96693721692304,329.79685959993066,434.6634122685731,332.51555474246,432.12000000000006,334.99999999999994 C424.96,341.94,415.74,346.18,406.12,348.53 C397.36047389684103,350.55751356086444,388.3906172368135,351.5343954052013,379.3999999999999,351.44000000000005 C376.94,361.86,374.76,372.36,372.27,382.75 C368.81,397.15,365.33,411.97,358.82,425.32 L359.09,425.38 C368.6469773395869,427.29689114292665,378.3113688261856,428.63267434770876,388.03000000000003,429.38 C407.77,431.07,427.28,430.11,446.46999999999997,424.95 C455.3169846111995,422.45154001724393,464.0257890737189,419.48740879351175,472.56000000000034,416.0699999999999 C472.24999999999994,411.82,471.48999999999995,407.59,470.78999999999996,403.4 C469.20717800749935,393.9566246288091,466.9718230561397,384.6342923204482,464.1000000000002,375.5000000000006 Z"></path>
  

  <path name="E" d="M93.21,242.32 C102.3,237.07999999999998,111.47999999999999,231.44,120.91,226.85 L121.00999999999999,226.85 C119.94065650084359,221.80739051040433,119.27190375336195,216.68808822843235,119.00999999999999,211.54000000000008 C118.6,201.95,120.17999999999999,192.20999999999998,124.63,183.62 C129.15810753637342,175.20590049864185,135.78185417964335,168.10337029665405,143.86,163 C148.1261663990721,160.13828245591804,152.7144131539027,157.78877789967706,157.53000000000003,156 C157.12,139,158.33,121.86,163.11,105.55 C167.50424129407494,90.92379079224222,174.18700767408973,77.08573919726206,182.90999999999988,64.55000000000021 C163.61,60.44,144.34000000000003,59.39,124.79000000000002,62.55 C105.13989926425694,65.74296741578894,86.3312742565538,72.8501860500503,69.48,83.45 C52.99217384173019,93.72547500568615,38.71474100676531,107.18025575825544,27.480000000000018,123.02999999999999 C16.186810159728054,139.1707117854715,8.106448137827215,157.33455078428213,3.6799999999999784,176.53000000000006 C-0.68345625139969,195.5405808641725,-1.1765785789352492,215.2348663728509,2.2300000000000466,234.44000000000008 C5.528572392436189,253.24058287952022,12.442960514617255,271.22274648804125,22.58999999999996,287.3899999999999 C25.2,291.52,27.96,295.53,30.939999999999998,299.39 C31.349999999999998,299.91999999999996,31.779999999999998,300.45,32.22,300.96999999999997 C37.13432991248416,292.8320691375674,42.61449627573202,285.04956458878434,48.6200000000002,277.67999999999967 C60.9,262.94,76.68,251.84,93.21,242.32 Z"></path>
  

  <path name="CD" d="M282.31,459.24 C280.3475777111621,458.38905022482834,278.4463727390739,457.4033639914962,276.62,456.28999999999996 C268.62,451.38,262.34000000000003,444.03000000000003,257.53000000000003,436.05 C252.48007717709515,427.3817113888268,248.45314272094052,418.15667570551915,245.53,408.5599999999999 C235.18000000000004,409.17,224.84000000000003,410.07,214.53000000000003,410.72 C199.03000000000003,411.72,182.80000000000004,412.83000000000004,167.23000000000002,410.57000000000005 C168.67000000000002,420.57000000000005,171.54000000000002,430.57000000000005,173.92000000000002,440.41 C178.55,459.41,185.29000000000002,477.70000000000005,195.78000000000003,494.29 C200.84877305612395,502.1468874509213,206.3332388232417,509.72766758307256,212.20999999999964,516.9999999999995 C223.85727488613122,511.92044980353285,234.86357361737532,505.4824867152357,244.99999999999986,497.82000000000005 C259.55,486.92,271.71,473.87,282.31,459.24 Z"></path>
  

  <path name="DE" d="M41.2,310.19 C48.124924362280126,316.9123408810005,55.52398034266366,323.1283499702116,63.33999999999999,328.79 C78.30112083251083,339.4598754374965,94.93081134159023,347.57027113385715,112.54999999999998,352.79 C112.60454921420273,349.71263925154733,112.93926509466198,346.64664178654004,113.54999999999983,343.6300000000009 C115.62,333.85,120.55000000000001,325.27,127.03000000000002,317.73 C133.08622071615423,310.81110066712876,139.92916759988105,304.6225797972944,147.4199999999999,299.29000000000013 C143.22000000000003,288.70000000000005,138.67000000000002,278.24,134.42000000000002,267.68 C129.20000000000002,254.57,123.77000000000001,240.85000000000002,120.92000000000002,226.79000000000002 L120.82000000000002,226.79000000000002 C111.39000000000001,231.38000000000002,102.21000000000002,237.02,93.12000000000002,242.26000000000002 C76.59000000000002,251.78000000000003,60.81000000000002,262.88,48.530000000000015,277.64000000000004 C42.55271338830423,285.03489771439575,37.10261577422227,292.8408008575566,32.220000000000056,300.99999999999994 C35.05478414406737,304.21434750600883,38.05202845340594,307.2816832746972,41.19999999999986,310.18999999999994 Z"></path>
  

  <path name="D" d="M173.86,440.41 C171.48000000000002,430.61,168.61,420.55,167.17000000000002,410.57000000000005 C163.16430318859747,410.002958876485,159.19939136083843,409.1779098272378,155.29999999999995,408.1 C137,403,121.33,390.45,115.37,372 C113.36321720956616,365.80610192455936,112.4099825215332,359.31937367514354,112.55000000000001,352.81 C94.93081134159023,347.59027113385713,78.30112083251083,339.4798754374965,63.34,328.81 C55.52398034266366,323.1483499702116,48.124924362280126,316.93234088100047,41.20000000000002,310.21 C38.044944045776774,307.29895206285664,35.04101143876838,304.2282653979147,32.20000000000012,301.01000000000016 L32.20000000000001,301.01 C21.79007697314603,317.7975040607354,14.644822527110904,336.4002724024309,11.140000000000043,355.8399999999999 C7.868016267159021,375.4131532587856,8.572016022463657,395.4448371174534,13.210000000000008,414.7399999999999 C17.587737108379542,433.63643959021033,25.75229032765877,451.44877319693785,37.21000000000001,467.09999999999997 C48.98452724479361,483.21691898301617,63.8375274496874,496.83953335858007,80.91,507.17999999999995 C97.14761192109506,516.91342018121,115.12572892029627,523.3907051079957,133.83999999999997,526.2499999999999 C153.7287040693852,529.2694363432793,174.01945242719265,528.3006202464497,193.5300000000001,523.4000000000001 C199.91750489351682,521.768663001557,206.16413239622838,519.628490837887,212.20999999999995,517.0000000000001 C206.31158316363877,509.71614555558983,200.80705106671772,502.1219608857928,195.72000000000074,494.250000000001 C185.23,477.7,178.49,459.41,173.86,440.41 Z"></path>
  

  <path name="C" d="M388,429.4 C378.28136882618554,428.65267434770874,368.61697733958687,427.31689114292664,359.05999999999983,425.4 L358.79,425.34 C356.62461106842,429.8334970798081,354.0610321476341,434.12397772791195,351.1300000000001,438.15999999999985 C340.01,453.36999999999995,323.52,464.42999999999995,304.13,463.91999999999996 C296.62631112347225,463.77007032668837,289.2203028995671,462.1884022092091,282.31000000000006,459.2599999999999 C271.71,473.88999999999993,259.55,486.93999999999994,244.97,497.8399999999999 C234.84195827505798,505.4934731541274,223.845874745586,511.92463800225573,212.20999999999987,517.0000000000001 L212.37,517.2 C225.51,532.0300000000001,240.52,544.37,258.24,553.37 C275.8451458259457,562.3715852818762,295.1004984826729,567.6898599244746,314.82999999999987,568.9999999999999 C354.30651217160596,571.7936637847631,393.24191328264203,558.5520222772783,422.83000000000004,532.27 C451.6165295531917,506.9574017697049,469.3635700788981,471.3915430013025,472.28,433.16999999999996 C472.64,428.41999999999996,472.82,423.65,472.71,418.87999999999994 C472.71,417.9599999999999,472.64,417.03999999999996,472.57,416.11999999999995 C464.02269697487645,419.5387407642614,455.30050709204374,422.5028833650863,446.4400000000006,424.9999999999998 C427.25,430.13,407.74,431.09,388,429.4 Z"></path>
  

  <path name="ABC" d="M349.62,349.55 C339.69,348.5,329.79,347.25,319.87,346.24 C318.33,365.33,316.19,384.64,310.7,403.03000000000003 C309.78,406.1,308.76,409.14000000000004,307.7,412.16 C315.46,413.67,323.17,415.53000000000003,330.88,417.67 C340.15,420.25,349.4,423.32,358.82,425.32 C365.33,411.96999999999997,368.82,397.15,372.27,382.75 C374.76,372.36,376.94,361.86,379.4,351.44 C369.4468737465568,351.33765643480587,359.50620677753784,350.7067678998346,349.6200000000004,349.55000000000007 Z"></path>
  

  <path name="B" d="M553.91,222.07 C538.8092640439734,185.84908473897505,509.86973776067873,157.15795095643267,473.5199999999999,142.36999999999998 C466.6406144100545,139.5564681860867,459.5395713999016,137.31878670997165,452.28999999999996,135.68 C452.67999999999995,145.26000000000002,453.03,154.83,452.72999999999996,164.41 C452.11999999999995,183.87,448.83,203.01999999999998,441.05999999999995,220.95999999999998 C436.7606421898707,230.6904602212232,431.87500364832397,240.1511669800761,426.4299999999996,249.29000000000048 C429.5118434219686,252.0602713159788,432.45223332260207,254.98397341921935,435.24000000000024,258.05000000000024 C448.46999999999997,272.71,453.91999999999996,291.8299999999999,447.18999999999994,310.78999999999996 C445.18939206244534,316.4944148608146,442.4349842264637,321.90569960818266,439,326.88000000000005 C450.0584541471186,341.54906153934235,458.54575341292195,357.9893997984401,464.1,375.49999999999994 C466.96257581921975,384.64156720588613,469.1879114047689,393.9706016726328,470.7600000000002,403.4200000000005 C471.46000000000004,407.61,472.22,411.84000000000003,472.53000000000003,416.09000000000003 L472.61,416.09000000000003 C490.89,408.29,507.41,397.92,521.61,383.88000000000005 C535.3253055037874,370.3025356819556,546.2298122930881,354.1547587225423,553.7,336.36000000000007 C561.2580474688942,318.1252384940729,565.2109100083737,298.5986408978472,565.3399999999999,278.86000000000007 C565.382332201804,259.3545077093966,561.4950141859697,240.04035284331715,553.9100000000028,222.07000000000681 Z"></path>
  

  <path name="BCE" d="M402.57,289 C396.0071890517381,300.95776878992825,390.54150473950557,313.48566614491085,386.2399999999998,326.43000000000046 C383.54,334.66,381.36,343.03000000000003,379.37,351.43 C388.3606172368136,351.5243954052013,397.3304738968411,350.54751356086445,406.0900000000001,348.52 C415.69000000000005,346.16999999999996,424.91,341.93,432.09000000000003,334.99 C434.63341226857307,332.50555474246005,436.936937216923,329.7868595999307,438.97,326.87 C438.3,325.99,437.64000000000004,325.11,436.97,324.23 C426.97305745535203,311.1362955990197,415.4216877246614,299.306215494013,402.57,289.00000000000006 Z"></path>
  

  <path name="BE" d="M402.57,289 C415.4117507044069,299.31116952629685,426.9529987989581,311.1445586113123,436.94000000000005,324.24 C437.62,325.12,438.28,326,438.94,326.88 C442.3924564574901,321.9084559431773,445.16374241588954,316.49704925984634,447.18,310.79 C453.91,291.79,448.46,272.71000000000004,435.23,258.05 C432.4422333226019,254.98397341921913,429.50184342196843,252.06027131597855,426.41999999999973,249.28999999999974 C421.95,256.93,417.24,264.44,412.51,271.99 Q407.26,280.39,402.57,289 Z"></path>
  

  <path name="ABCE" d="M402.57,289 C400.12,287.07,397.62,285.2,395.06,283.42 C379.61,272.68,362.27,264.97,344.74,258.28000000000003 C340.09000000000003,268.28000000000003,335.65000000000003,278.28000000000003,331.92,288.65000000000003 C325.4552828162304,306.78088779596817,321.4463584737938,325.6954771431691,320,344.89000000000004 C320,345.34,319.93,345.78999999999996,319.89,346.24 C329.81,347.24,339.71,348.5,349.64,349.55 C359.51626149403154,350.70570849813777,369.44688626794795,351.3365952484807,379.38999999999993,351.44 C381.39,343.03,383.56,334.65999999999997,386.26,326.44 C390.55451639277646,313.4929310534244,396.0135079532169,300.9616837190964,402.5699999999997,289.0000000000004 Z"></path>
  

  <path name="AE" d="M157.53,156 C161.60705856298338,154.50593722327085,165.87706909375004,153.60344288396055,170.20999999999998,153.32 C179.82,152.73,189.21,155.25,197.97,159.07 C207.3768312547362,163.36175744619516,216.23644874576502,168.76347193769396,224.36000000000007,175.16000000000005 C232.19000000000003,169.02,239.86,162.65,247.65,156.5 C259.73,146.97,272.22,137.35,285.89,130.07999999999998 C277.88443587454674,120.03827501235989,269.0934234768984,110.64871137120494,259.5999999999999,101.99999999999991 C244.85000000000002,88.89,227.8,79.59,209.44000000000003,72.59 C200.75327674495588,69.44960149465413,191.9038079790501,66.7790715011707,182.92999999999986,64.58999999999997 H182.93000000000004 C174.20700767408988,77.1257391972619,167.52424129407504,90.96379079224204,163.13000000000008,105.58999999999989 C158.33,121.89,157.12,139.06,157.53,156 Z"></path>
  

  <path name="A" d="M209.44,72.59 C227.8,79.59,244.85,88.89,259.6,102 C269.0946278946187,110.65828077449095,277.8856719256644,120.05790982404187,285.89,130.10999999999999 C289.3717549090706,128.22756468124388,292.94630214676147,126.52206175084234,296.6000000000001,124.99999999999996 C305.35,121.39,314.5,118.88,324.04,119.5 S342.47,124.11,350.04,129.91 C354.6157896599059,133.39482834898206,358.74962327485787,137.4245605487728,362.34999999999997,141.90999999999997 C370.16064103263824,138.9422693214347,378.18322176362585,136.56557977987964,386.3499999999997,134.80000000000004 C396.22687211587265,132.8237383392284,406.27741236265257,131.8454857552085,416.35,131.87999999999994 C426.15622360363295,132.03216811632961,435.9399228218439,132.86752494848562,445.62999999999994,134.38 C447.9,134.71,450.15,135.13,452.38,135.60999999999999 V135.42999999999998 C450.32,115.82999999999998,445.43,97.01999999999998,436.25,79.48999999999998 C408.44514170058414,26.163892793176473,351.1136725761381,-5.010414775008968,291.24,0.6399999999999864 C272.359446372396,2.3875498113791878,253.99705333424896,7.780462728815394,237.17000000000002,16.52000000000001 C219.43340914568566,25.781735554951254,203.733967153339,38.50586636183043,190.99999999999994,53.940000000000055 Q186.77,59.07,183,64.61 H183 C191.94978931909682,66.79492470695769,200.7758238089236,69.45875811198107,209.43999999999966,72.58999999999992 Z"></path>
  

  <path name="ABE" d="M367,208.41 C363.91,217.23,360.07,225.81,356.22,234.05 S348.54,250.19,344.76000000000005,258.28000000000003 C362.2900000000001,264.97,379.63000000000005,272.68,395.08000000000004,283.42 C397.64000000000004,285.2,400.14000000000004,287.07,402.59000000000003,289 Q407.26000000000005,280.38,412.54,272 C417.27000000000004,264.45,421.98,256.94,426.45000000000005,249.3 C415.27000000000004,239.19,402.33000000000004,230.74,389.74000000000007,222.79000000000002 C382.14,218,374.51,213.27,367,208.41 Z"></path>
  

  <path name="AB" d="M416.26,132 C406.18741236265254,131.9654857552085,396.1368721158726,132.94373833922842,386.26,134.91999999999993 C378.0932217636261,136.68557977987953,370.07064103263855,139.06226932143463,362.26000000000033,142.0299999999999 C364.7367361756617,145.12660433999753,366.8755409197856,148.47896287310706,368.64,152.02999999999997 C372.93,160.67000000000002,373.96999999999997,170.41,373.3,179.93 C372.47567697294244,189.66122691035727,370.3569938555104,199.23901979678007,366.9999999999999,208.41000000000037 C374.53,213.27,382.16,217.99,389.74,222.78 C402.33,230.73,415.27,239.18,426.45,249.29 C431.8867431938417,240.16364422855787,436.7656776438007,230.7163440513272,441.06000000000006,220.99999999999983 C448.83,203.06,452.12,183.91,452.73,164.45 C453.03000000000003,154.86999999999998,452.68,145.29999999999998,452.29,135.72 C450.06,135.24,447.81,134.82,445.54,134.49 C435.8496881674045,132.98087387532988,426.06599032194623,132.14885858724273,416.2599999999998,131.99999999999997 Z"></path>
  </svg>