
<!DOCTYPE svg PUBLIC "-//W3C//DTD SVG 1.1//EN" 
  "http://www.w3.org/Graphics/SVG/1.1/DTD/svg11.dtd">
<svg width="700" height="700" version="1.1"
     xmlns="http://www.w3.org/2000/svg">


  <path name="ABE" d="M296,79.12 C292.8203460218589,74.75229779564573,289.2849666599625,70.65500383318297,285.4300000000002,66.87000000000015 C277.3,59,267.46,51.93,256.75,48 C252.05292219544373,50.40665650577644,247.66996269050247,53.38236694361397,243.69999999999993,56.86000000000004 C235.48,64.07,228.89,72.73,222.92999999999998,81.93 C233.67999999999998,84.34,244.43999999999997,87.46000000000001,255.39999999999998,87.64 C269.35,87.9,282.88,84.18,296,79.12 Z"></path>
  

  <path name="ABCE" d="M225,121.69 Q247.29,125.94,269.56,130.32999999999998 C273.56,127.24999999999999,277.56,124.21999999999998,281.67,121.32999999999998 C291.70538710808995,114.22626700309766,302.4252704960593,108.1427331804251,313.67,103.17000000000002 C307.37,95.65999999999998,302,87.07999999999998,296.07,79.16999999999999 C282.92,84.22999999999999,269.39,87.94999999999999,255.44,87.70999999999998 C244.44,87.52999999999997,233.72,84.40999999999998,222.97,81.99999999999999 C215.55,93.46999999999998,209.11,105.77999999999999,201.73,117.16999999999999 C209.44,118.67,217.19,120.22,225,121.69 Z"></path>
  

  <path name="ABC" d="M222.93,82 C211.33,79.4,199.75,77.62,187.93,81.23 C173.93,85.51,163.64000000000001,95.95,157.61,108.66 C172.34,111.25999999999999,187.02,114.22999999999999,201.69,117.17 C209.07,105.73,215.51,93.42,222.93,82 Z"></path>
  

  <path name="ABCF" d="M150.59,158.34 C167.88,151.87,183.7,141.68,194.92000000000002,126.84 C197.29000000000002,123.71000000000001,199.53000000000003,120.45,201.69000000000003,117.12 C187.02000000000004,114.18,172.34000000000003,111.21000000000001,157.61,108.61 C154.27423239600972,115.68147859204288,152.24167627797007,123.29678884763139,151.61,131.08999999999997 C150.9,140.25,151.45,149.29,150.59,158.34 Z"></path>
  

  <path name="ABF" d="M107.43,167.62 C113.03,166.94,118.64000000000001,166.27,124.15,165.35 C133.16643684205332,163.86536441963597,142.02012096201008,161.5213482002828,150.59000000000015,158.34999999999994 C151.45000000000002,149.29999999999998,150.9,140.26,151.59,131.1 C152.22167627797,123.30678884763155,154.25423239600963,115.69147859204304,157.58999999999995,108.62000000000016 C153.73,107.93999999999998,149.86,107.27,145.98000000000002,106.61999999999999 C139.78000000000003,105.61999999999999,133.57000000000002,104.61999999999999,127.34000000000002,104.07999999999998 Q124.17000000000002,109.95999999999998,121.34000000000002,115.96999999999998 C113.49,132.52,109.24,149.81,107.43,167.62 Z"></path>
  

  <path name="AC" d="M421.49,88.85 C417.17,75.41,409.49,63.58999999999999,395.49,57.629999999999995 C376.02,49.31999999999999,355.23,54.28999999999999,336.4,61.74999999999999 C344.10999999999996,69.94,350.21,79.85,355.4,90.11999999999999 C377,86.2,399.82,86.28,421.49,88.85 Z"></path>
  

  <path name="ACE" d="M296,79.12 C301.93,87.06,307.3,95.64,313.6,103.12 C325.2444106200289,97.92771630436368,337.386952887037,93.93381167349347,349.84000000000026,91.19999999999993 C351.69000000000005,90.8,353.55,90.44,355.43,90.09 C350.21,79.82000000000001,344.11,69.91,336.43,61.72 Q333.62,62.83,330.89,64 C319.57,68.85,308,74.53,296,79.12 Z"></path>
  

  <path name="AE" d="M296,79.12 C308,74.53,319.57,68.85,330.89,64 Q333.62,62.83,336.43,61.72 C331.11130546249916,55.95847989783791,324.81400871042695,51.18472268255735,317.8299999999999,47.619999999999976 C298.5569984002694,38.07771431969465,275.90598419358133,38.214925767901505,256.74999999999994,47.989999999999995 C267.46,51.89999999999999,277.3,58.989999999999995,285.46,66.84 C289.305874856259,70.63575377985629,292.83122475268175,74.74308743527106,296,79.11999999999995 Z"></path>
  

  <path name="BCF" d="M95.1,318.69 C86.45,311.28,77.18,304,68.59,296.2 C66.44072419756588,299.85538336830245,64.5526801198433,303.6582048912198,62.93999999999998,307.5800000000001 C58.150000000000006,319.82,58.32000000000001,333.25,65.94,344.34 C68.1521914886774,347.48155445761495,70.68588756575477,350.38391001680674,73.50000000000001,352.99999999999994 C74.11,351.93,74.72,350.88,75.34,349.84 C81.62,339.16,88.25,328.85,95.1,318.69 Z"></path>
  

  <path name="ACD" d="M355.46,90.12 C359.56,98.22,363.12,106.54,366.46,114.43 C367.78999999999996,117.54,369.08,120.66000000000001,370.35999999999996,123.79 L371.86999999999995,123.65 C385.69999999999993,122.35000000000001,399.48999999999995,120.65,413.31999999999994,119.43 C417.55999999999995,119.05000000000001,422.0899999999999,118.56,426.62999999999994,118.43 C426.62999999999994,117.98,426.56999999999994,117.53,426.5299999999999,117.08000000000001 C425.7799999999999,107.79000000000002,424.38999999999993,97.95000000000002,421.4699999999999,88.85000000000001 C399.82,86.28,377,86.2,355.46,90.12 Z"></path>
  

  <path name="BCEF" d="M119.58,284.08 C120.5,282.82,121.46,281.58,122.39999999999999,280.32 C120.69,275.08,119.1,269.8,117.67999999999999,264.5 C113.45077726471158,249.2226476439667,110.27663031835891,233.6726688141507,108.17999999999972,217.95999999999884 C97.52999999999999,225.12,86.38,231.72,76.17999999999999,239.32 C79.38,250.51999999999998,81.78999999999999,261.55,79.11,273.32 C77.17,281.83,72.71,288.92,68.56,296.24 C77.15,304.08,86.42,311.32,95.07000000000001,318.73 C103,307,111.18,295.55,119.58,284.08 Z"></path>
  

  <path name="BCDF" d="M118.42,383.8 C120.31,375.8,121.55,367.68,120.74,359.37 C119.33,344.89,111,332.88,100.42999999999999,323.37 C98.69,321.8,96.91,320.25,95.1,318.7 C88.25,328.86,81.61999999999999,339.16999999999996,75.33999999999999,349.82 C74.71999999999998,350.82,74.10999999999999,351.90999999999997,73.49999999999999,352.98 C80.27999999999999,359.37,88.49999999999999,364.63,96.00999999999999,369.56 S110.91,379.12,118.42,383.8 Z"></path>
  

  <path name="BE" d="M72.69,242 Q74.42999999999999,240.64,76.21,239.3 C75.91999999999999,238.3,75.63,237.3,75.33,236.3 C71.69,223.96,68.42,211.48000000000002,66.72,198.70000000000002 C65.86,192.14000000000001,65.17999999999999,185.28000000000003,64.94,178.34000000000003 C58.772597333965514,181.71258045061268,53.33455362097175,186.2737396148862,48.94000000000003,191.75999999999996 C32.51,212.16,31.5,241,42.84,264.09 C43.84,266.09,44.900000000000006,268.09,46.050000000000004,269.94 C53.52884718354399,259.3846882757471,62.502721813398495,249.9728993433847,72.69000000000008,241.9999999999999 Z"></path>
  

  <path name="BEF" d="M75.33,236.28 C75.63,237.28,75.92,238.28,76.21,239.28 C86.38,231.68,97.53,225.08,108.21,217.92000000000002 C106.95679772293028,208.1738030042294,106.33882669254979,198.3564145810501,106.36000000000004,188.5300000000001 C106.36,181.53000000000003,106.75,174.53000000000003,107.46,167.58000000000004 C92.52,169.39000000000004,77.67999999999999,171.27000000000004,64.97,178.28000000000003 C65.21,185.22000000000003,65.89,192.08000000000004,66.75,198.64000000000004 C68.42,211.46,71.69,223.94,75.33,236.28 Z"></path>
  

  <path name="BF" d="M121.34,116 Q124.2,110,127.34,104.11 C120.69672156270195,103.45118787513739,113.99288014042799,103.76448297678135,107.44000000000007,105.04 C95.46534537904641,107.4951975537809,84.87465409906014,114.41740495352883,77.82,124.39999999999999 C66.88,139.82,64.27,159.4,64.91999999999999,178.33 C77.63,171.33,92.46999999999998,169.44,107.41,167.63000000000002 C109.24,149.81,113.49,132.52,121.34,116 Z"></path>
  

  <path name="BCE" d="M76.21,239.32 Q74.42999999999999,240.66,72.69,242.01999999999998 C62.504168329285974,249.98679437909155,53.530364818079505,259.39177163257824,46.049999999999926,269.94000000000005 C51.989999999999995,279.81,59.94,288.31,68.59,296.2 C72.74000000000001,288.88,77.2,281.78999999999996,79.14,273.28 C81.82,261.55,79.41,250.52,76.21,239.32 Z"></path>
  

  <path name="ABDF" d="M428,191.81 C428,204.54,428,217.22,427.76,229.9 C437.76,238.19,448.76,245.48000000000002,459.24,253 Q465.93,257.77,472.62,262.53 C476.02,256.01,479.9,249.68999999999997,483.22,243.25999999999996 C486.3,237.30999999999997,489.36,231.25999999999996,491.99,224.97999999999996 C489.37,223.07999999999996,486.81,221.11999999999995,484.36,219.03999999999996 C475.0842229993647,211.32906254404637,468.3824241650592,200.97110276317545,465.15,189.35 C463.22,182.34999999999997,462.71000000000004,175.20999999999998,462.38000000000005,168.03999999999996 C451.01000000000005,165.49999999999997,439.55000000000007,163.19999999999996,428.07000000000005,161.03999999999996 C428.09,171.27,428,181.55,428,191.81 Z"></path>
  

  <path name="ABCEF" d="M223.93,169.88 C238.5,156.13,253.60000000000002,142.63,269.51,130.32999999999998 Q247.24,126,225,121.69 C217.24,120.22,209.49,118.69,201.74,117.12 C199.58,120.45,197.34,123.71000000000001,194.97,126.84 C183.75,141.68,167.97,151.84,150.64,158.34 C150.39924796784015,161.10537591882058,149.9918408771087,163.8537040800663,149.41999999999996,166.57000000000014 C146.99204389620837,178.3881225986374,141.28004442245384,189.28182062412918,132.94,198.00000000000003 C125.61,205.66,117.07,212,108.17999999999999,218 C110.2766303183592,233.7126688141518,113.4507772647118,249.26264764396745,117.68000000000018,264.5400000000007 C119.1,269.84000000000003,120.67999999999999,275.12,122.39999999999999,280.36 C136.81,261.16,153.1,243.12,169.25,225.41000000000003 Q195.52,196.59,223.93,169.88 Z"></path>
  

  <path name="BCDE" d="M129.9,391 Q124.17,387.38,118.42,383.81 C117.12,389.31,115.53,394.75,114.07000000000001,400.18 C112.29,406.82,110.27000000000001,413.71,108.42,420.74 C124.88426182442316,428.1656078754557,141.9788411581223,434.1058737950555,159.4999999999999,438.49 C159.37,431.1,158.92,423.74,156.43,416.82 C152,404.41,140.49,397.65,129.9,391 Z"></path>
  

  <path name="ABEF" d="M149.37,166.57 C149.94184087710875,163.85370408006617,150.3492479678402,161.10537591882047,150.59000000000003,158.33999999999992 C142.0201209620099,161.51134820028284,133.16643684205314,163.85536441963598,124.14999999999985,165.34000000000003 C118.64,166.26,113.03,166.93,107.43,167.61 C106.72000000000001,174.52,106.37,181.51000000000002,106.33000000000001,188.56 C106.30665657449796,198.4030964534342,106.924632038644,208.2372573531426,108.17999999999984,217.99999999999903 C117.07000000000001,212,125.61000000000001,205.67,132.94,198 C141.26184756355582,189.27578378106944,146.95622056083673,178.38265272175488,149.37,166.57 Z"></path>
  

  <path name="ABCDE" d="M381.68,152.14 C377.93,142.67999999999998,374.24,133.2,370.38,123.78999999999999 C358.84,124.78999999999999,346.98,124.92999999999999,336.05,120.52999999999999 C326.77000000000004,116.78999999999999,319.76,110.46999999999998,313.63,103.14999999999999 C302.3852704960592,108.12273318042512,291.66538710808993,114.20626700309768,281.63000000000005,121.31 C277.54,124.21999999999998,273.51,127.24999999999999,269.52,130.31 Q289.58,134.25,309.63,138.19 C333.63,142.91,357.68,147.41,381.68,152.14 Z"></path>
  

  <path name="ABCDF" d="M423.19,226 C424.68,227.34,426.19,228.64,427.75,229.92 C427.97,217.23999999999998,427.99,204.56,427.99,191.82999999999998 C427.99,181.57,428.09000000000003,171.29,428.06,161.01999999999998 C413.01,158.13,397.92,155.38,382.93,152.40999999999997 L381.68,152.15999999999997 C386.95,165.50999999999996,392.33,178.80999999999997,398.37,191.79999999999995 S412.45,216.39,423.19,226 Z"></path>
  

  <path name="ACDE" d="M336.05,120.53 C346.98,124.93,358.84000000000003,124.8,370.38,123.79 C369.1,120.66000000000001,367.81,117.54,366.48,114.43 C363.12,106.54,359.56,98.22,355.48,90.12 C353.6,90.47,351.74,90.83,349.89000000000004,91.23 C337.4369528870368,93.96381167349358,325.29441062002866,97.95771630436377,313.6499999999998,103.15000000000009 C319.76,110.47,326.77,116.79,336.05,120.53 Z"></path>
  

  <path name="BCDEF" d="M144.45,335.94 C136.35,317.85,128.54999999999998,299.28,122.44999999999999,280.32 C121.50999999999999,281.58,120.54999999999998,282.82,119.63,284.08 C111.18,295.55,103,307,95.1,318.69 C96.91,320.24,98.69,321.79,100.42999999999999,323.36 C111,332.88,119.32999999999998,344.89,120.74,359.36 C121.55,367.67,120.30999999999999,375.78000000000003,118.42,383.79 Q124.16,387.37,129.9,390.98 C140.49,397.64000000000004,151.97,404.40000000000003,156.43,416.8 C158.92000000000002,423.72,159.37,431.08,159.5,438.47 C165.5,439.97,171.5,441.31,177.5,442.47 C187.42096143925886,444.3541642619914,197.43510134870507,445.70941119640315,207.49999999999997,446.53000000000003 C197.63,432.71000000000004,188.5,418.29,179.87,403.77000000000004 C166.7435620891173,381.8740600135894,154.9164691431888,359.2249432851218,144.44999999999902,335.9399999999982 Z"></path>
  

  <path name="BCD" d="M105.32,419.32 C106.32,419.8,107.38,420.27,108.41999999999999,420.73 C110.26999999999998,413.73,112.28999999999999,406.81,114.07,400.17 C115.52999999999999,394.74,117.11999999999999,389.3,118.41999999999999,383.8 C110.90999999999998,379.12,103.41999999999999,374.43,96.00999999999999,369.55 S80.28,359.36,73.5,353 C67.78,363,62.31,374,58.97,385.44 C72.37,399.26,87.84,411.14,105.32,419.32 Z"></path>
  

  <path name="ABCD" d="M371.89,123.65 L370.38,123.79 C374.24,133.20000000000002,377.93,142.68,381.68,152.14000000000001 L382.93,152.39000000000001 C397.93,155.39000000000001,413.01,158.11,428.06,161 C428.06,146.79,427.75,132.59,426.65,118.43 C422.10999999999996,118.56,417.58,119.05000000000001,413.34,119.43 C399.51,120.68,385.72,122.35,371.89,123.65 Z"></path>
  

  <path name="ABDEF" d="M427.75,229.9 C427.52,243.12,427.08,256.33,426.21,269.57 C424.53,295.07,422.15,320.5,418.9,345.84 C416.10999999999996,367.54999999999995,412.98999999999995,389.59999999999997,407.57,410.89 C423,403.97999999999996,438.37,396.71999999999997,453.13,388.44 C452.0983947517877,381.90380677794894,451.71986259198445,375.2811689024526,452,368.66999999999996 C452.65,355.67,457.36,344.51,464.91,334 C468.21000000000004,329.41,471.76000000000005,325,475.44,320.73 C467.44,306.88,461.64,291.93,466.61,276.48 C468.2084106756631,271.65126583690085,470.21568262373023,266.96763129141084,472.6099999999999,262.48000000000013 Q465.94,257.71000000000004,459.23,252.95000000000002 C448.71,245.48,437.74,238.19,427.75,229.9 Z"></path>
  

  <path name="ABD" d="M462.37,168 C462.15,163.18,462,158.36,461.57,153.55 C460.57,142.45000000000002,458.34999999999997,129.22000000000003,448.05,122.85000000000001 C441.74,118.95,434.18,118.17000000000002,426.65000000000003,118.39000000000001 C427.75000000000006,132.55,428.03000000000003,146.75,428.06000000000006,160.96 C439.54,163.2,451,165.5,462.37,168 Z"></path>
  

  <path name="ABCDEF" d="M426.21,269.57 C427.08,256.33,427.52,243.12,427.75,229.89999999999998 C426.21,228.61999999999998,424.68,227.31999999999996,423.19,225.98 C412.45,216.39,404.43,204.79,398.37,191.77999999999997 S387,165.49,381.68,152.14 C357.68,147.41,333.63,142.91,309.62,138.20999999999998 Q289.56,134.29,269.51,130.32999999999998 C253.6,142.63,238.51,156.13,223.93,169.88 Q195.59,196.63,169.25,225.37 C153.1,243.08,136.81,261.12,122.4,280.32 C128.55,299.32,136.35,317.85,144.4,335.94 C154.86611633907137,359.2283497866234,166.6932140259098,381.88081469557636,179.8200000000004,403.78000000000077 C188.48999999999998,418.29999999999995,197.57999999999998,432.71999999999997,207.45,446.53999999999996 C222.2316754631057,447.7394039153898,237.0735573933141,448.01994353783294,251.89000000000007,447.3799999999999 C277.7070373875595,446.30181290441004,303.37428263346885,442.89803295720833,328.58,437.2099999999999 C353.91593613423026,431.6447595704926,378.64447744867095,423.60622521390894,402.4099999999995,413.2100000000001 L407.52,410.93999999999994 C412.94,389.6499999999999,416.06,367.5999999999999,418.84999999999997,345.88999999999993 C422.15,320.5,424.53,295.07,426.21,269.57 Z"></path>
  

  <path name="BDEF" d="M475.4,320.73 C485.27,309.23,496.09999999999997,298.5,505.79999999999995,286.87 C494.93999999999994,278.49,483.79999999999995,270.49,472.60999999999996,262.53000000000003 C470.2156826237303,267.0176312914108,468.2084106756632,271.70126583690075,466.61,276.53 C461.6,291.93,467.44,306.88,475.4,320.73 Z"></path>
  

  <path name="ACDEF" d="M328.63,437.21 C303.4242826334688,442.89803295720833,277.7570373875595,446.30181290441004,251.94,447.37999999999994 C237.12355739331403,448.01994353783306,222.28167546310556,447.7394039153899,207.49999999999986,446.5400000000001 C212.57,453.65000000000003,217.83,460.61,223.36,467.32000000000005 S234.91000000000003,480.95000000000005,241.05,487.5400000000001 C242.36,486.9700000000001,243.66000000000003,486.4100000000001,244.98000000000002,485.88000000000005 C257.83000000000004,480.63000000000005,271.3,477.20000000000005,285.25,478.9800000000001 C295.17,480.24000000000007,304.74,483.26000000000005,314.13,486.7100000000001 C326.13,472.8900000000001,338.67,459.0300000000001,357.68,458.1700000000001 C367.2,457.74000000000007,376.44,459.7100000000001,385.68,461.7100000000001 C394.3013682126866,448.5477253645925,400.93597489899093,434.1867839237449,405.37,419.0900000000001 C406.15,416.37000000000006,406.88,413.6300000000001,407.58,410.8900000000001 L402.46999999999997,413.1600000000001 C378.7030807382996,423.5739475253201,353.97111335628404,431.6292538029131,328.6300000000007,437.20999999999975 Z"></path>
  

  <path name="ACEF" d="M357.68,458.17 C338.68,459.03000000000003,326.1,472.89000000000004,314.13,486.71000000000004 C318.2,488.20000000000005,322.23,489.77000000000004,326.24,491.32000000000005 C334.92,494.66,343.55,497.93000000000006,352.24,501.03000000000003 C358.4261462210878,495.57333903540564,364.21112141336937,489.6780783541897,369.5499999999998,483.39000000000027 C375.3929758559747,476.5173750281851,380.7874639906624,469.2757339904124,385.69999999999993,461.71000000000015 C376.44,459.71,367.2,457.74,357.68,458.17 Z"></path>
  

  <path name="E" d="M502.42,446.5 C490.10225754137747,453.5755018861147,476.9004793832865,458.9860115795351,463.16,462.5899999999999 C463.0937595542978,469.9865977445865,462.4686462977557,477.36761416407836,461.2900000000001,484.66999999999956 C458.9003355209102,498.0561061027807,454.0118627537654,510.8726571883275,446.88000000000005,522.4499999999998 C474.35,524.4499999999999,501.76,519.4499999999999,526.04,506.1499999999999 C549.28,493.3999999999999,568.9499999999999,473.6199999999999,579.68,449.2099999999999 C590.8585784016377,423.6739984618888,590.8114180230347,394.6195775209402,579.55,369.1199999999999 C578.99,367.8599999999999,578.41,366.5999999999999,577.8,365.3499999999999 C571.14,375.3499999999999,564.4599999999999,385.4299999999999,557.2099999999999,395.06999999999994 C542,415.26,524.58,433.9,502.42,446.5 Z"></path>
  

  <path name="BC" d="M59,385.41 C62.31,374,67.78,362.94,73.5,353 C70.70682280706828,350.3808734271807,68.19332883861554,347.47862572494057,66,344.3399999999999 C58.36,333.25,58.19,319.82,63,307.58 C64.6126801198433,303.6582048912198,66.50072419756586,299.85538336830245,68.64999999999998,296.2000000000001 C60.00000000000001,288.31,52.050000000000004,279.81,46.11000000000001,269.94 C40.14083124458557,278.4385647029252,35.27837578031962,287.6627804938098,31.639999999999986,297.39 C27.410296944228463,308.777561041716,24.393606150041848,320.579525804306,22.640000000000015,332.6 C29.0955673882587,346.4271552881396,37.15059292831518,359.44944657789756,46.64000000000013,371.40000000000015 C50.5,376.24,54.63,380.93,59,385.41 Z"></path>
  

  <path name="B" d="M46.05,269.94 C44.9,268.04,43.82,266.1,42.839999999999996,264.09 C31.5,241,32.51,212.16,49,191.74 C53.3945536209717,186.25373961488629,58.83259733396547,181.69258045061275,64.99999999999994,178.32000000000008 C64.35,159.32000000000002,67,139.81000000000003,77.9,124.39000000000001 C84.93483054668746,114.4087642241598,95.50260048557902,107.47679334746468,107.45999999999998,105 C114.01288014042795,103.72448297678133,120.71672156270193,103.41118787513737,127.36000000000001,104.07 C136.50512379033836,86.7411207279883,147.97076674079076,70.74035844150012,161.44000000000008,56.50999999999985 C167.41666108190418,50.3215822451495,173.82980582865807,44.57013768591895,180.63,39.29999999999998 H180.49 C154.67000000000002,40.64,129.36,45.3,105.61000000000001,55.81999999999999 C83.19712661724266,65.80689329900474,63.23292089068033,80.56334211296291,47.11000000000013,99.05999999999992 C30.370000000000015,118.25,18.170000000000012,141.06,10.390000000000015,165.28 C3.1130702149943374,188.19887281985774,-0.39588160669180184,212.14687798595605,5.684341886080802e-14,236.18999999999974 C0.27646107070646053,260.2909787043374,4.391380274463955,284.1939671225551,12.189999999999742,306.99999999999926 C15.19534280033588,315.71785668714756,18.677253781297566,324.2640619711954,22.620000000000232,332.60000000000053 C24.373606150041837,320.57952580430594,27.390296944228453,308.7775610417159,31.620000000000033,297.39 C35.2458255987797,287.66480464382295,40.094792363189626,278.44067867826146,46.050000000000026,269.93999999999994 Z"></path>
  

  <path name="A" d="M256.28,47.85 L256.75,48.02 C275.9059841935814,38.24492576790152,298.55699840026944,38.10771431969468,317.83,47.65000000000002 C324.81400871042695,51.21472268255738,331.1113054624992,55.98847989783794,336.43000000000006,61.750000000000036 C355.26,54.290000000000006,376.05,49.32000000000001,395.52,57.63000000000001 C409.52,63.63000000000001,417.16999999999996,75.41000000000001,421.52,88.85000000000001 C423,89.03000000000002,424.52,89.22000000000001,425.95,89.42 C442.8727804030676,91.62734734417927,459.5086741467443,95.65053809234774,475.5699999999998,101.41999999999996 L475.57,101.35000000000001 C464.21,79.27000000000001,449.15999999999997,59.69000000000001,429.88,43.92000000000001 C411.0937137560529,28.715956604420484,389.5984385390349,17.20656851663432,366.5299999999999,9.999999999999943 C343.87923984284373,2.848961312239652,320.206873418093,-0.5294269316237603,296.4599999999999,0 C271.96266895785396,0.42388679287827813,247.7318644131174,5.163077399560478,224.87999999999988,14.000000000000028 C208.99863409658508,20.279295091266192,194.09759252862864,28.798986654414193,180.62999999999988,39.30000000000007 C193.06,39.44,205.5,39.58,217.89,40.64 C230.76,41.74,244.05,43.51,256.28,47.85 Z"></path>
  

  <path name="AB" d="M161.44,56.54 C147.9707667407908,70.77035844150029,136.50512379033847,86.77112072798833,127.36000000000013,104.0999999999999 C133.59,104.6,139.8,105.64,146,106.64 C149.88,107.26,153.75,107.93,157.61,108.64 C163.61,95.93,173.93,85.49000000000001,187.93,81.21000000000001 C199.75,77.60000000000001,211.33,79.38000000000001,222.93,81.98 C228.93,72.78,235.48000000000002,64.12,243.70000000000002,56.910000000000004 C247.66719450305456,53.41484132816738,252.05027260849295,50.42225696652324,256.75000000000006,47.99999999999997 L256.28,47.83 C244.04999999999998,43.489999999999995,230.75999999999996,41.72,217.89,40.62 C205.5,39.559999999999995,193.06,39.419999999999995,180.63,39.279999999999994 C173.82809432378662,44.566166976954406,167.41490672379254,50.33435968023204,161.44000000000017,56.539999999999864 Z"></path>
  

  <path name="AD" d="M421.49,88.85 C424.41,97.94999999999999,425.8,107.78999999999999,426.55,117.08 C426.55,117.53,426.62,117.98,426.65000000000003,118.42999999999999 C434.18,118.21,441.74,118.99,448.05,122.88999999999999 C458.35,129.26,460.56,142.48999999999998,461.57,153.58999999999997 C462,158.39999999999998,462.15,163.21999999999997,462.37,168.03999999999996 L464.37,168.47999999999996 C475.82,171.06999999999996,488.3,173.62999999999997,499.58,178.16999999999996 C498.46999999999997,163.53999999999996,494.77,148.89999999999995,490.15,135.51999999999995 C485.96816328270734,123.86741158978778,481.08935714065154,112.47685187003934,475.5399999999998,101.40999999999951 C459.4786741467444,95.64053809234773,442.84278040306776,91.61734734417922,425.92000000000013,89.41 C424.45,89.22,423,89,421.49,88.85 Z"></path>
  

  <path name="DF" d="M497.75,207.53 C496.34687868079163,213.50998970182053,494.4228652589344,219.35564439396768,492.00000000000006,224.9999999999998 C499.39,230.37,507.31,235.16,514.87,240.14 C519.62,243.26,524.65,246.29,529.51,249.54999999999998 C535.51,235.13,537.62,219.69,530.1899999999999,204.38 C523.7399999999999,191.1,512.4499999999999,183.38,499.59999999999997,178.19 C500.44128645885115,188.00763234609036,499.8177996109015,197.89579673465414,497.75,207.53000000000003 Z"></path>
  

  <path name="ADF" d="M462.37,168 C462.7,175.17,463.21,182.32,465.14,189.31 C468.3724241650592,200.9311027631755,475.0742229993648,211.28906254404643,484.3500000000001,219.00000000000003 C486.8,221.08,489.35,223,491.98,224.94 C494.40858677300105,219.30274953069264,496.33928217647446,213.4638180245209,497.74999999999994,207.49000000000018 C499.8130936086534,197.8483034786893,500.4298487436865,187.95325934504305,499.5799999999999,178.13000000000005 C488.3,173.59,475.82,171.03,464.37,168.44 Z"></path>
  

  <path name="CF" d="M297.82,535.29 C290.7014751089415,531.1003440364746,283.88180958339,526.4224744942051,277.40999999999997,521.29 L275.16999999999996,519.51 C262.49999999999994,525.27,248.50999999999996,527.03,234.30999999999995,521.27 C224.70999999999995,517.38,217.00999999999993,510.40999999999997,211.00999999999993,502.13 C199.60999999999993,507.65999999999997,188.00999999999993,512.65,175.71999999999994,515.21 C177.90999999999994,519.21,180.27999999999994,523.21,182.71999999999994,527.01 C189.47571340760567,537.5245167654356,197.85262834563042,546.9038264402022,207.5399999999999,554.8 C219.4162391553025,554.378836613448,231.25703677570752,553.2535267437141,242.9999999999995,551.4300000000001 C261.90238295197275,548.4787712161778,280.3340414922252,543.0521574102736,297.8200000000001,535.2899999999998 Z"></path>
  

  <path name="DE" d="M539.61,315.72 C536.4300000000001,319.87,533.0500000000001,323.78000000000003,529.82,327.35 C519.7202661965825,338.5066882814882,508.8033871467725,348.8954390735304,497.15999999999997,358.43000000000006 C503.86000000000007,375.17,504.7900000000001,393.21000000000004,490.3400000000001,407.69 C481.9800000000001,416.07,471.0900000000001,420.19,459.7800000000001,422.69 C462.0947275385256,435.8490716917385,463.22591549075077,449.1890574241933,463.1600000000001,462.55 C476.9004793832865,458.94601157953514,490.1022575413775,453.53550188611473,502.42,446.46000000000004 C524.58,433.86,542.0200000000001,415.22,557.21,395.03000000000003 C564.46,385.39000000000004,571.14,375.36,577.8000000000001,365.31000000000006 C568.83,346.81,554.7,330.23,539.61,315.72 Z"></path>
  

  <path name="D" d="M602.42,296.5 C605.7496620168115,271.1192654352451,603.1586942663579,245.31226829070167,594.8499999999999,221.09999999999994 C586.6086065160009,197.30325293123872,573.6882417990171,175.39643454399484,556.8499999999998,156.6699999999999 C540.2258811993291,138.04541401804505,520.3137569167463,122.64182315320747,498.10999999999984,111.22999999999999 C490.79117020834155,107.49086146808685,483.2465658411211,104.21117953421768,475.5199999999998,101.40999999999991 C481.06935714065173,112.47685187003992,485.94816328270764,123.86741158978859,490.1300000000004,135.52000000000098 C494.74999999999994,148.89999999999998,498.44999999999993,163.51999999999998,499.55999999999995,178.17 C512.41,183.33999999999997,523.6999999999999,191.07999999999998,530.15,204.35999999999999 C537.5799999999999,219.67,535.5,235.10999999999999,529.47,249.52999999999997 C535.5400000000001,253.60999999999999,541.34,258.05999999999995,545.98,263.53 C560.64,280.85999999999996,551.64,300,539.59,315.71 C554.6800000000001,330.21999999999997,568.8100000000001,346.79999999999995,577.78,365.34 H577.78 C590.2,344,599.12,321.07,602.42,296.5 Z"></path>
  

  <path name="EF" d="M463.16,462.59 C452.93395732814497,465.2442880704248,442.4326981615641,466.69412634462196,431.86999999999983,466.91 C425.756044128007,467.00545095259304,419.6412374380568,466.7851576984791,413.5499999999998,466.2499999999999 Q412.98,468.50999999999993,412.44,470.7799999999999 C409.4184744938391,483.31224765686915,404.9413859859306,495.4480437922493,399.09999999999997,506.93999999999994 C397.8,509.48999999999995,396.45000000000005,511.93999999999994,395.02000000000004,514.3599999999999 C399.26000000000005,515.43,403.53000000000003,516.4399999999999,407.85,517.3599999999999 C420.5937085900888,519.9204041933206,433.4968256090984,521.6109731243457,446.47,522.4199999999998 L446.88000000000005,522.4199999999998 C454.01186275376534,510.84265718832745,458.9003355209101,498.02610610278066,461.29,484.63999999999993 C462.46714154978935,477.34750778423705,463.0922499936056,469.9765766686492,463.15999999999997,462.5899999999997 Z"></path>
  

  <path name="C" d="M182.73,527 C180.28,523.18,177.91,519.24,175.73,515.2 C172.8716307456058,515.7999206097301,169.98455623192376,516.2538421517656,167.0799999999997,516.5600000000002 C140.55999999999997,519.33,115.43999999999998,506.14000000000004,106.21999999999998,480.46000000000004 C103.88550022368536,473.7730671028551,102.64949589108252,466.7521572463489,102.55999999999999,459.67 C81.48,453.42,61.22,441,56.7,417.85 C54.6,407,55.86,396.06,59,385.41 C54.66,380.93,50.53,376.24,46.63,371.41 C37.140592928315044,359.4594465778974,29.085567388258568,346.4371552881394,22.62999999999994,332.6099999999999 C20.859386210485837,344.6572691544086,20.026884116254223,356.8238359050467,20.139999999999986,368.9999999999999 C20.180929037254515,393.0564260325749,24.585575340532444,416.9058916700857,33.14000000000374,439.3900000000098 C42.147091269508564,462.7306396382775,56.00580872995195,483.89364424031714,73.80000000000005,501.4800000000001 C91.23235929868338,518.5711605822962,111.90355272268903,532.0074363079,134.59999999999997,541 C157.88,550.26,182.6,554.52,207.6,554.81 C197.8932244567103,546.9117105552704,189.49916191637914,537.5253462912331,182.72999999999993,527 Z"></path>
  

  <path name="BDF" d="M492,225 C489.37,231.24,486.31,237.33,483.23,243.28 C479.91,249.71,476.03000000000003,256.03,472.63,262.55 C483.82,270.55,494.96,278.55,505.82,286.89 C509.5967864281834,282.4077780863627,513.141433234496,277.73498568632715,516.4399999999998,272.89000000000016 C521.5579237416621,265.54731761757904,525.9359625712292,257.7157531313297,529.5100000000001,249.50999999999982 C524.65,246.25,519.62,243.22,514.87,240.1 C507.29,235.14,499.37,230.35,492,225 Z"></path>
  

  <path name="F" d="M407.85,517.36 C403.53000000000003,516.44,399.26000000000005,515.4300000000001,395.02000000000004,514.36 C390.35,522.15,384.79,529.04,377.09000000000003,534.51 C367.3891205037361,541.3551781551101,356.07625909144144,545.5626115344619,344.26000000000005,546.72 C327.02000000000004,548.4300000000001,311.83000000000004,543.37,297.82000000000005,535.2900000000001 C280.3340414922252,543.0521574102737,261.9023829519728,548.478771216178,243.00000000000006,551.43 C231.26615509900586,553.2389511425322,219.43541436347073,554.3509005258043,207.5699999999996,554.7600000000001 C226.64,570.54,249.79,580.05,273.99,584.66 C300.83020192066647,589.7618392738112,328.42368368345615,589.3979168593384,355.11999999999995,583.5899999999999 C380.49,578.03,405.33,567.0899999999999,424.69,549.4999999999999 C433.34394967923595,541.60607782028,440.8231614893547,532.5138347372902,446.9,522.4999999999999 L446.48999999999995,522.4999999999999 C433.5082850680051,521.6654770086766,420.5984394719593,519.9481735313559,407.84999999999985,517.36 Z"></path>
  

  <path name="CDF" d="M241.05,487.54 C230.96,491.93,221.05,497.21000000000004,211.05,502.09000000000003 C217.05,510.37,224.75,517.34,234.35000000000002,521.23 C248.55,526.99,262.54,525.23,275.21000000000004,519.47 C263.0647112821322,509.6684222653879,251.64796201804822,498.9969701575952,241.05000000000013,487.5400000000002 Z"></path>
  

  <path name="CDEF" d="M223.36,467.32 C217.83,460.61,212.57000000000002,453.65,207.5,446.53999999999996 C197.43510134870507,445.71941119640314,187.42096143925886,444.3641642619914,177.5,442.48 C171.5,441.31999999999994,165.45,439.97999999999996,159.5,438.47999999999996 C159.59,443.77,159.5,449.06999999999994,159.91,454.22999999999996 C160.28,459.11999999999995,160.72,464.03,161.32,468.91999999999996 C168.85999999999999,469.81999999999994,176.32,471.17999999999995,183.32,474.23999999999995 C195.32,479.53999999999996,202.47,489.49999999999994,209.6,500.03999999999996 C210.07,500.72999999999996,210.54999999999998,501.40999999999997,211.04999999999998,502.03999999999996 C221.1,497.15999999999997,231.04999999999998,491.87999999999994,241.04999999999998,487.48999999999995 C234.91,481,229,474.17,223.36,467.32 Z"></path>
  

  <path name="CD" d="M108.42,420.73 C107.42,420.27000000000004,106.35000000000001,419.8,105.32000000000001,419.32 C87.84,411.14,72.37,399.26,59,385.41 C55.86,396.06,54.6,407,56.7,417.85 C61.22,441.03000000000003,81.48,453.42,102.55000000000001,459.64000000000004 C102.26,446.73,105.05,433.51,108.42,420.73 Z"></path>
  

  <path name="ACDF" d="M314.13,486.71 C304.74,483.26,295.13,480.23999999999995,285.25,478.97999999999996 C271.3,477.2,257.83,480.62999999999994,244.98,485.87999999999994 C243.66,486.4099999999999,242.35999999999999,486.9699999999999,241.04999999999998,487.53999999999996 C251.6351497569175,498.99550068376004,263.03849282902183,509.66691757392095,275.16999999999996,519.47 C284.4812231722503,515.0427917455511,292.982797485065,509.08323885748246,300.31999999999994,501.8399999999999 C305.06,497.29,309.55,492,314.13,486.71 Z"></path>
  

  <path name="ACF" d="M352.21,501 C343.54999999999995,497.9,334.91999999999996,494.63,326.21,491.29 C322.21,489.74,318.21,488.17,314.09999999999997,486.68 C309.52,491.97,305.03,497.26,300.28999999999996,501.81 C292.9527974850651,509.0532388574825,284.45122317225037,515.0127917455511,275.14000000000004,519.4399999999999 L277.38,521.22 C283.85180958339004,526.3524744942051,290.6714751089416,531.0303440364746,297.79000000000013,535.22 Q304.99,532.0400000000001,312.08000000000004,528.33 C326.51124488796546,520.8739858206138,339.98607547726544,511.6971325934628,352.21000000000004,500.9999999999999 Z"></path>
  

  <path name="CDE" d="M146.69,467.41 C151.51,467.95000000000005,156.43,468.34000000000003,161.32,468.92 C160.72,464.03000000000003,160.32,459.12,159.91,454.23 C159.52,449.07,159.59,443.77000000000004,159.5,438.48 C141.9788411581224,434.0958737950555,124.8842618244233,428.1556078754557,108.42000000000013,420.7300000000001 C105.05,433.51,102.26,446.73,102.55,459.64 Q106.2,460.71,109.84,461.55 C121.99918882157283,464.2168806646501,134.30334366760673,466.17352509878197,146.68999999999943,467.4099999999999 Z"></path>
  

  <path name="CEF" d="M183.28,474.24 C176.33,471.18,168.86,469.82,161.28,468.92 C162.19977308461517,477.2509803004345,163.8732956751551,485.4813644007099,166.27999999999992,493.50999999999976 C168.69655960496132,501.01563653421795,171.83454915425386,508.26951632479177,175.64999999999998,515.1699999999998 C187.94,512.61,199.54000000000002,507.61999999999995,210.94,502.09 C210.44,501.40999999999997,209.94,500.72999999999996,209.49,500.09 C202.43,489.5,195.28,479.54,183.28,474.24 Z"></path>
  

  <path name="CE" d="M161.32,468.92 C156.43,468.34000000000003,151.51,467.92,146.69,467.41 C134.3033436676073,466.1735250987821,121.99918882157338,464.2168806646502,109.84000000000054,461.5500000000001 Q106.19,460.71000000000004,102.55,459.64 C102.63949589108252,466.7221572463486,103.87550022368532,473.7430671028549,106.20999999999995,480.42999999999984 C115.42999999999999,506.11,140.55,519.3,167.07,516.53 C169.97455623192405,516.2238421517654,172.8616307456061,515.7699206097299,175.72000000000028,515.1699999999998 C171.90454915425389,508.26951632479177,168.76655960496134,501.01563653421795,166.35000000000002,493.50999999999993 C163.93313954622036,485.48231600695385,162.24957251064154,477.25191572765294,161.31999999999996,468.91999999999996 Z"></path>
  

  <path name="BD" d="M505.8,286.87 C512.9300000000001,292.37,519.94,298.04,526.75,303.98 C531.05,307.73,535.37,311.64000000000004,539.61,315.72 C551.61,300.01000000000005,560.61,280.87,546,263.54 C541.36,258.06,535.56,253.61,529.49,249.54000000000002 C525.9159625712291,257.74575313132993,521.537923741662,265.5773176175793,516.4199999999998,272.92000000000024 C513.1200282732173,277.7479323354957,509.57540252497313,282.40400853022334,505.80000000000007,286.8699999999999 Z"></path>
  

  <path name="ADE" d="M453.13,388.44 C454.08,394.75,455.42,401.01,456.78,407.25 Q458.45,414.86,459.78,422.73 C471.09,420.19,481.97999999999996,416.07,490.34,407.73 C504.78999999999996,393.25,503.85999999999996,375.21000000000004,497.15999999999997,358.47 C488.98048176168805,365.1886162064979,480.45194488186087,371.4706930784489,471.60999999999945,377.2900000000004 C465.6,381.2,459.42,384.91,453.13,388.44 Z"></path>
  

  <path name="ABDE" d="M475.4,320.73 C471.71999999999997,325.02000000000004,468.16999999999996,329.41,464.87,334 C457.32,344.51,452.61,355.65,451.96,368.67 C451.6930853634846,375.2824966335826,452.08501734719476,381.9051422044803,453.12999999999994,388.44 C459.42,384.91,465.6,381.2,471.61,377.25 C480.45194488186144,371.4306930784485,488.9804817616886,365.1486162064975,497.16000000000054,358.4299999999996 C495.00177139890513,353.13517790750893,492.40961447538143,348.02779258851456,489.40999999999997,343.15999999999997 C485.12,336.11,479.92,328.6,475.4,320.73 Z"></path>
  

  <path name="BDE" d="M505.8,286.87 C496.1,298.5,485.27,309.23,475.40000000000003,320.73 C479.92,328.6,485.12000000000006,336.11,489.40000000000003,343.16 C492.3996144753815,348.0277925885146,494.99177139890514,353.135177907509,497.15000000000003,358.43000000000006 C508.79338714677266,348.89543907353027,519.7102661965828,338.506688281488,529.8100000000004,327.3499999999997 C533.0400000000001,323.78000000000003,536.4200000000001,319.87,539.6,315.72 C535.36,311.64000000000004,531.0400000000001,307.72,526.74,303.98 C519.94,298,512.93,292.37,505.8,286.87 Z"></path>
  

  <path name="DEF" d="M425.67,439.1 C419,446.91,415.99,456.51000000000005,413.55,466.25 C419.64123743805703,466.7851576984792,425.7560441280072,467.00545095259315,431.8700000000003,466.9100000000001 C442.4326981615642,466.6941263446219,452.9339573281451,465.2442880704248,463.1600000000001,462.59000000000003 C463.2259154907508,449.22905742419545,462.0947275385257,435.8890716917406,459.78000000000037,422.73000000000195 L459.21000000000004,422.86 C446.67,425.62,434.34,429,425.67,439.1 Z"></path>
  

  <path name="ADEF" d="M453.13,388.44 C438.37,396.72,423,404,407.57,410.89 C406.87,413.63,406.14,416.37,405.36,419.09 C400.92597489899094,434.1867839237447,394.2913682126866,448.54772536459234,385.67,461.7099999999999 C388.29,462.28,390.91,462.85999999999996,393.54,463.38 C400.14952982862155,464.69957012453654,406.8261126823668,465.6576597640491,413.54000000000036,466.2500000000001 C415.98,456.51,418.99,446.91,425.66,439.1 C434.33000000000004,428.95000000000005,446.66,425.62,459.20000000000005,422.86 L459.77000000000004,422.73 Q458.45000000000005,414.87,456.77000000000004,407.25 C455.42,401,454.08,394.75,453.13,388.44 Z"></path>
  

  <path name="AEF" d="M385.67,461.71 C380.7574639906625,469.2757339904123,375.3629758559748,476.5173750281849,369.5200000000001,483.38999999999993 C364.1800207423527,489.66774360065466,358.39507154417765,495.5529518837201,352.21000000000004,500.99999999999994 C366.28999999999996,506.05,380.46,510.63,395.02,514.33 C396.45,511.93000000000006,397.79999999999995,509.46000000000004,399.09999999999997,506.91 C404.9413859859306,495.4180437922494,409.4184744938391,483.28224765686923,412.43999999999994,470.75 Q412.97999999999996,468.49,413.54999999999995,466.22 C406.83611268236643,465.627659764049,400.15952982862115,464.66957012453656,393.5499999999996,463.35 C390.91,462.86,388.29,462.28,385.67,461.71 Z"></path>
  

  <path name="AF" d="M312.11,528.4 Q305.01,532.12,297.82,535.29 C311.82,543.37,327.02,548.43,344.26,546.7199999999999 C356.07625909144133,545.5626115344618,367.38912050373597,541.35517815511,377.09,534.5099999999999 C384.78999999999996,529.0399999999998,390.34999999999997,522.1499999999999,395.02,514.3599999999999 C380.46,510.6599999999999,366.28999999999996,506.0799999999999,352.21,501.0299999999999 C339.99759781031963,511.7391329123997,326.5328497811018,520.9294110560329,312.1099999999999,528.4000000000001 Z"></path>
  </svg>