<!DOCTYPE svg PUBLIC "-//W3C//DTD SVG 1.1//EN" 
  "http://www.w3.org/Graphics/SVG/1.1/DTD/svg11.dtd">
<svg width="1000" height="600" viewBox="-150 -50 1000 700"  version="1.1"
     xmlns="http://www.w3.org/2000/svg">


  <path name="BCEG" d="M173.32,409.62 L172.94,409.62 C169.57999999999998,417.96,166.87,426.57,164.35,435.2 C164.35,435.25,164.35,435.31,164.35,435.36 C168.5731795218882,435.2985794715895,172.78685125379982,434.9410355577794,176.96000000000012,434.29 C182.95563067135274,433.4009063651363,188.89537176496356,432.1688858684852,194.75000000000026,430.6 C194.74999999999997,425.99,194.16999999999996,421.33000000000004,191.74999999999997,417.47 C187.83,411.21,180.06,410,173.32,409.62 Z"></path>
  

  <path name="CEG" d="M172.94,409.6 C165.94,409.17,158.94,408.98,151.94,408.66 Q148.25,408.49,144.59,408.19 C142.81,412.66,141.54,417.36,142.19,422.19 C143.64,432.92,154.19,435.41,164.31,435.38 C164.31,435.38,164.31,435.27,164.31,435.21999999999997 C166.87,426.55,169.58,417.94,172.94,409.6 Z"></path>
  

  <path name="BCEFG" d="M221.69,420.75 C221.69,419.84,221.77,418.92,221.78,418.01 C222.06,404.09,216.73,390.55,203.21,384.94 C198.16,382.84,192.85000000000002,382.21,187.48000000000002,381.94 C184.93,386.48,182.03000000000003,390.94,179.63000000000002,395.32 C177.12825312254108,399.96160345094154,174.8945904819056,404.7427766966665,172.94000000000005,409.63999999999993 L173.32000000000002,409.64 C180.06000000000003,410.06,187.83,411.22999999999996,191.72000000000003,417.46999999999997 C194.13000000000002,421.33,194.72000000000003,425.98999999999995,194.72000000000003,430.59999999999997 C202.49726771210675,428.5327703902102,210.10860036672486,425.88535033642995,217.49000000000018,422.6799999999999 Q219.59,421.73,221.69,420.75 Z"></path>
  

  <path name="BFG" d="M220.45,450.46 L219.51999999999998,450.88 Q209.58999999999997,455.17,199.33999999999997,458.67 C196.92,459.49,194.48999999999998,460.27000000000004,192.05999999999997,461.03000000000003 C191.76999999999998,466.8,192.21999999999997,472.72,195.17,477.81000000000006 C198.48,483.52000000000004,204.64,485.87000000000006,211.01999999999998,484.9800000000001 C214.5985734305393,484.3909517768894,218.04898874447466,483.19007193723536,221.22,481.43 C220.72999999999996,475.00000000000006,220.49999999999997,468.55000000000007,220.46999999999997,462.0300000000001 C220.45,458.17,220.42,454.32,220.45,450.46 Z"></path>
  

  <path name="ABDFG" d="M292.66,453.4 C294.34000000000003,451.52,296.02000000000004,449.67999999999995,297.77000000000004,447.95 C296.70020928394445,445.66660935212303,295.4320067035254,443.4815531911372,293.98,441.41999999999996 C289.99304237812214,435.7702674680432,284.12689988910563,431.72245192577316,277.43,430.00000000000006 C265.98,427.17,255.97,431.3,246.31,436.48 C245.96578084690975,445.23319392080197,246.42100151696314,453.9995390301385,247.67000000000002,462.67 C247.82000000000002,463.67,247.98000000000002,464.67,248.14000000000001,465.67 L248.23000000000002,465.62 C254.05,462.37,261.41,459.57,267.69,463.33 C271.54,465.62,273.91,469.41999999999996,275.79,473.45 Q277.79,471.14,279.73,468.74 C283.91,463.54,288.22,458.4,292.66,453.4 Z"></path>
  

  <path name="ABFG" d="M246.31,436.51 C243.19,438.19,240.1,439.96999999999997,237.02,441.65999999999997 C231.57000000000002,444.65999999999997,226.13,447.90999999999997,220.45000000000002,450.46 C220.45000000000002,454.32,220.45000000000002,458.16999999999996,220.45000000000002,462.03 C220.45000000000002,468.54999999999995,220.71,475.03,221.20000000000002,481.42999999999995 C224.39000000000001,479.74999999999994,227.45000000000002,477.74999999999994,230.52,475.94999999999993 C236.37,472.49999999999994,242.19,468.99999999999994,248.12,465.68999999999994 C247.96,464.68999999999994,247.8,463.68999999999994,247.65,462.68999999999994 C246.40829358660022,454.02222457939024,245.95976890666225,445.25925732508006,246.31,436.5100000000002 Z"></path>
  

  <path name="BCFG" d="M219.52,450.88 L220.45000000000002,450.46 C220.45000000000002,446.7,220.53000000000003,442.94,220.69000000000003,439.18 C220.95000000000002,433.03000000000003,221.46000000000004,426.89,221.69000000000003,420.75 Q219.59000000000003,421.75,217.48000000000002,422.66 C210.0986003667247,425.86535033643,202.4872677121066,428.5127703902102,194.70999999999984,430.58000000000004 C194.71,432.95000000000005,194.56,435.30000000000007,194.42000000000002,437.53000000000003 C194.00000000000003,444.22,192.9,450.85,192.3,457.53000000000003 C192.20000000000002,458.68,192.11,459.85,192.06,461.03000000000003 C194.49,460.27000000000004,196.92000000000002,459.49,199.34,458.67 Q209.57,455.19,219.52,450.88 Z"></path>
  

  <path name="ADFG" d="M305,480.55 C306.3,479.1,307.65,477.55,309.09,476.07 C307,471,305.09,465.83,303.01,460.65999999999997 C301.34,456.48999999999995,299.78999999999996,452.09,297.8,447.95 C296.05,449.68,294.37,451.52,292.69,453.4 C288.25,458.4,283.94,463.53999999999996,279.76,468.76 Q277.82,471.15999999999997,275.82,473.46999999999997 C276.82,475.55999999999995,277.65,477.7,278.5,479.73999999999995 C281.24,486.28,283.79,492.90999999999997,287.02,499.22999999999996 L287.72999999999996,500.59 C288.65999999999997,499.59,289.59,498.5,290.48999999999995,497.44 C295.24,491.77,300,486.06,305,480.55 Z"></path>
  

  <path name="ABDEF" d="M163.54,304.7 L165.35,303.51 C175.75,296.56,190.42,287.11,188.13,272.59999999999997 C187.06,265.79999999999995,183.25,259.54999999999995,179.51999999999998,253.88999999999996 C174.65999999999997,254.97999999999996,169.76999999999998,255.70999999999995,165.51999999999998,256.53 C159.79,257.64,154.10999999999999,258.96,148.45999999999998,260.42999999999995 C151.84999999999997,265.06999999999994,155.23,270.88999999999993,153.95999999999998,276.73999999999995 C152.48999999999998,283.5199999999999,145.61999999999998,287.73999999999995,140.07,290.96 L139.25,291.44 C143.15380588295807,294.0615792606793,147.20369138255717,296.4587909578863,151.38000000000005,298.62 C155.41,300.69,159.47,302.7,163.54,304.7 Z"></path>
  

  <path name="CEFG" d="M172.94,409.6 C174.89459048190554,404.70277669666666,177.12825312254103,399.9216034509417,179.62999999999994,395.2800000000002 C182.03,390.86,184.93,386.44000000000005,187.48,381.90000000000003 C186.39999999999998,381.83000000000004,185.32999999999998,381.78000000000003,184.25,381.73 C176.56,381.40000000000003,168.87,381.12,161.18,380.73 C160.24,380.68,159.3,380.62,158.37,380.55 C157.94,381.39,157.5,382.2,157.09,382.98 C153.77,389.21000000000004,150.41,395.44,147.43,401.84000000000003 C146.43,403.90000000000003,145.43,406.04,144.59,408.22 Q148.25,408.52000000000004,151.94,408.69000000000005 C159,409,166,409.17,172.94,409.6 Z"></path>
  

  <path name="ABDF" d="M154,276.74 C155.27,270.89,151.89,265.07,148.5,260.43 C140.41,262.54,132.41,264.98,124.5,267.66 C121.5,268.66,118.5,269.8,115.5,270.98 C116.15,271.86,116.81,272.70000000000005,117.5,273.49 C121.9,278.73,127.5,283.08,133,287.06 C135.09,288.56,137.19,290.06,139.33,291.44 L140.15,290.96 C145.61,287.71,152.48,283.52,154,276.74 Z"></path>
  

  <path name="ABEF" d="M142.05,319.75 C143.81,318.3,145.59,316.87,147.43,315.52 C152.64000000000001,311.65999999999997,158.13,308.25,163.54000000000002,304.7 C159.47000000000003,302.7,155.41000000000003,300.7,151.37000000000003,298.62 C147.19369138255715,296.4587909578863,143.14380588295808,294.0615792606793,139.24,291.43999999999994 C133.53000000000003,294.77,127.73000000000003,297.98,122.24000000000004,301.6 C120.49000000000004,302.75,118.67000000000004,303.94,116.89000000000004,305.22 C120.29000000000005,307.43,123.73000000000005,309.58000000000004,127.24000000000004,311.68 C132.06,314.58,137,317.23,142.05,319.75 Z"></path>
  

  <path name="ACEFG" d="M184.25,381.73 C185.33,381.73,186.4,381.83000000000004,187.48,381.90000000000003 C191.67999999999998,374.40000000000003,194.92999999999998,366.54,193.48,357.70000000000005 C191.48,345.47,181.48,338.37000000000006,171.1,333.22 C165.27827763993253,337.7000933983496,159.71909467731484,342.51137426869917,154.44999999999987,347.6300000000001 C152.67999999999998,349.37000000000006,150.91,351.1000000000001,149.17999999999998,352.8500000000001 C154.51999999999998,355.05000000000007,160.64,358.1500000000001,162.17999999999998,363.9700000000001 C163.61999999999998,369.4000000000001,160.98,375.4800000000001,158.37999999999997,380.5200000000001 C159.30999999999997,380.5900000000001,160.24999999999997,380.6500000000001,161.18999999999997,380.7000000000001 C168.87,381.12,176.56,381.4,184.25,381.73 Z"></path>
  

  <path name="AEF" d="M142.05,319.75 C137.05,317.23,132.05,314.58,127.20000000000002,311.68 C123.69000000000001,309.58,120.20000000000002,307.43,116.85000000000002,305.22 C112.85000000000002,308.11,109.09000000000002,311.45000000000005,106.91000000000003,315.82000000000005 C103.81000000000003,322.03000000000003,105.55000000000003,328.31000000000006,110.16000000000003,333.22 C112.88347039869298,336.0510708480053,115.99439923699461,338.48190485369116,119.40000000000005,340.44000000000005 C123.15000000000002,336.7900000000001,126.98000000000002,333.22,130.82000000000002,329.6700000000001 C134.5,326.28,138.2,322.93,142.05,319.75 Z"></path>
  

  <path name="AEFG" d="M154.43,347.63 C159.69909467731492,342.51137426869906,165.2582776399326,337.7000933983494,171.08000000000007,333.21999999999986 C169.34,332.35999999999996,167.59,331.54999999999995,165.86,330.78999999999996 C157.86,327.21999999999997,149.86,323.65999999999997,142.05,319.78999999999996 C138.20000000000002,322.96999999999997,134.5,326.31999999999994,130.82000000000002,329.71 C126.98000000000002,333.26,123.15000000000002,336.83,119.40000000000002,340.47999999999996 C127.99000000000002,345.58,138.3,348.60999999999996,147.18,352.09999999999997 L149.18,352.89 C150.89,351.1,152.66,349.37,154.43,347.63 Z"></path>
  

  <path name="ACDF" d="M321.63,468.72 C316.52,469.21000000000004,312.54,472.45000000000005,309.06,476.07000000000005 C312.25,483.86000000000007,315.83,491.4200000000001,320.92,498.43000000000006 C322.33000000000004,500.37000000000006,323.8,502.2800000000001,325.29,504.1600000000001 C327.4729041874565,501.51790470344787,329.5125014087423,498.7606096056049,331.4000000000001,495.90000000000003 C334.8271047098557,490.55630447781596,337.6637352739244,484.85621941999483,339.86,478.90000000000015 C339.40000000000003,478.3900000000001,338.95,477.9000000000001,338.48,477.3700000000001 C334.16,472.64,328.42,468.07,321.63,468.72 Z"></path>
  

  <path name="ABDE" d="M476,364 C466,365.5,455.81,366.33,446,368.72 C448.3,371.61,450.58,374.53000000000003,452.76,377.51000000000005 C456.81,383.03000000000003,460.98,388.59000000000003,464.76,394.37000000000006 C466,394.13000000000005,467.23,393.93000000000006,468.40999999999997,393.75000000000006 C475.11999999999995,392.75000000000006,481.90999999999997,392.38000000000005,488.65,391.68000000000006 C490.51,391.49000000000007,492.4,391.2900000000001,494.29999999999995,391.02000000000004 C491.98999999999995,387.29,489.5799999999999,383.65000000000003,487.12999999999994,380.08000000000004 C483.48,374.72,479.79,369.34,476,364 Z"></path>
  

  <path name="ABDEG" d="M446,368.73 C445.44,368.86,444.89,368.99,444.34,369.14000000000004 C437.53,370.92,430.59,373.43000000000006,425.28999999999996,378.24000000000007 C420.4201561384563,382.7765247664784,417.52286961641425,389.0414132187255,417.21999999999997,395.69000000000005 C416.80999999999995,401.21000000000004,417.77,406.64000000000004,419.03,411.99000000000007 C423.71,413.0400000000001,428.29999999999995,414.4000000000001,432.61999999999995,415.6000000000001 C437.3299999999999,416.9000000000001,442.04999999999995,418.38000000000005,446.8299999999999,419.55000000000007 C445.6699999999999,413.49000000000007,445.88999999999993,406.05000000000007,450.12999999999994,401.2900000000001 C453.7699999999999,397.2000000000001,459.38999999999993,395.43000000000006,464.7699999999999,394.38000000000005 C460.9799999999999,388.6000000000001,456.7699999999999,383.0400000000001,452.7699999999999,377.52000000000004 C450.59,374.54,448.31,371.62,446,368.73 Z"></path>
  

  <path name="BEG" d="M452.94,420.84 C450.89,420.48999999999995,448.86,420.04999999999995,446.84,419.54999999999995 C446.90999999999997,419.91999999999996,446.97999999999996,420.28,447.06,420.63999999999993 C448.57,427.3999999999999,449.71,434.19999999999993,450.88,441.0299999999999 C451.26,443.2999999999999,451.62,445.5799999999999,451.96,447.8399999999999 C457.38,449.0399999999999,463.13,449.69999999999993,468.46999999999997,448.25999999999993 C480.33,445.05999999999995,480.24999999999994,433.13999999999993,477.74999999999994,422.79999999999995 C476.3999999999999,422.79999999999995,475.05999999999995,422.79999999999995,473.74999999999994,422.72999999999996 C466.77795897807306,422.58224772722485,459.8245817242036,421.9507300429474,452.9400000000002,420.84000000000003 Z"></path>
  

  <path name="BDEG" d="M450.14,401.29 C445.9,406.05,445.68,413.49,446.84,419.55 C448.84,420.05,450.89,420.49,452.94,420.84000000000003 C459.81468034382175,421.949348994496,466.75798570978685,422.58086233143894,473.72000000000014,422.73 C475.06,422.73,476.40000000000003,422.79,477.72,422.8 C476.9677273364281,419.74888323681614,476.03950885098277,416.74385936307254,474.94000000000005,413.8 C472.2827632614321,406.9585223674728,468.864620237187,400.43755078834386,464.7500000000001,394.3600000000001 C459.4,395.43,453.78,397.2,450.14,401.29 Z"></path>
  

  <path name="ADF" d="M309.06,476.07 C307.62,477.55,306.27,479.07,304.97,480.55 C299.97,486.06,295.24,491.77000000000004,290.46000000000004,497.44 C289.56000000000006,498.5,288.63000000000005,499.54,287.70000000000005,500.59 C290.70000000000005,506.14,294.43000000000006,511.59,300.24000000000007,514.41 C309.87000000000006,519.02,318.76000000000005,511.95,325.2900000000001,504.15999999999997 C323.80000000000007,502.28,322.2900000000001,500.36999999999995,320.9200000000001,498.42999999999995 C315.83,491.42,312.25,483.86,309.06,476.07 Z"></path>
  

  <path name="ABCD" d="M461.65,344.83 C466.65,351.03999999999996,471.4,357.47999999999996,476.02,364.01 C479.64,363.46999999999997,483.25,362.84999999999997,486.81,362.01 C492.9839688805587,360.5642496785307,499.07326523353305,358.77818961885896,505.04999999999995,356.65999999999997 C498.92,349.72999999999996,491.12,343.96999999999997,485.87,336.48999999999995 C485.8,336.4,485.74,336.29999999999995,485.68,336.21 C477.48960713961964,339.2023867386241,469.1031650493637,341.62810664202084,460.58,343.46999999999997 C460.94,343.94,461.29,344.39,461.65,344.83 Z"></path>
  

  <path name="ABD" d="M476,364 C479.77,369.33,483.46,374.71,487.13,380.08 C489.58,383.65,491.99,387.28999999999996,494.3,391.02 C499.56,390.26,504.78000000000003,388.90999999999997,508.92,385.46 C514.16,381.08,514.82,374.46,512.48,368.35999999999996 C510.7253955164707,364.044166352616,508.2010459491298,360.0831399845334,505.03000000000003,356.67 C499.05941754745436,358.7807238092778,492.9768223220643,360.56009990978987,486.81,362 C483.25,362.85,479.64,363.47,476,364 Z"></path>
  

  <path name="ABCDF" d="M463.18,292.05 C457.40000000000003,296.46000000000004,452.37,301.58,449.96,308.5 C445.47999999999996,321.36,452.82,333.63,460.58,343.5 C469.1031650493637,341.65810664202087,477.48960713961964,339.2323867386241,485.68,336.24 C482.13,331.09000000000003,479.37,324.3,480.63,318 C481.63,313.06,484.68,308.93,488.3,305.47 C486.08,304.31,483.83,303.18,481.57,302.05 C475.32,298.93,469.24,295.5,463.18,292.05 Z"></path>
  

  <path name="ACDG" d="M369.7,471.07 C362.31,464.74,355.32,458.02,348.4,451.07 C347.97999999999996,453.15999999999997,347.53,455.26,347.02,457.33 C345.2445987300945,464.20274699077663,343.0266379753871,470.9534980228003,340.38000000000005,477.53999999999974 L339.86,478.84 C344.27000000000004,483.7,348.58000000000004,488.67999999999995,353.33000000000004,493.19 C355.93070698694305,495.7324516070068,358.7443148341036,498.0475724515194,361.74000000000024,500.11000000000007 C362.89000000000004,496.78000000000003,363.95000000000005,493.43,364.9600000000001,490.11 C366.83,483.89,368.36,477.51,369.7,471.07 Z"></path>
  

  <path name="ABEG" d="M447.06,420.64 C446.98,420.28,446.91,419.91999999999996,446.84,419.55 C442.06,418.38,437.34,416.90000000000003,432.63,415.6 C428.31,414.40000000000003,423.71999999999997,413.04,419.04,411.99 C419.42,413.57,419.81,415.14,420.21000000000004,416.71000000000004 C421.90526301629683,423.77857672061054,423.2039567294912,430.93641559230383,424.1,438.1499999999999 C424.18,438.75000000000006,424.26000000000005,439.34000000000003,424.35,439.93 C425.41,440.19,426.48,440.47,427.54,440.76 C434.49,442.61,441.25,445.13,448.21000000000004,446.94 C449.44000000000005,447.26,450.69000000000005,447.57,451.96000000000004,447.84 C451.62000000000006,445.58,451.26000000000005,443.29999999999995,450.88000000000005,441.03 C449.71,434.2,448.57,427.4,447.06,420.64 Z"></path>
  

  <path name="ABCF" d="M487.05,275 H487.05 C484.91,276.82,482.73,278.58,480.45,280.26 C475.11,284.21,468.8,287.82,463.19,292.11 C469.25,295.56,475.33,298.99,481.58,302.11 C483.84,303.24,486.09,304.37,488.31,305.53000000000003 C489.60648090630696,304.29826238246324,490.96491039278015,303.13341744197385,492.3799999999999,302.04000000000013 C497.85,297.76000000000005,503.79,294.14000000000004,509.3,289.92 C510.01,289.38,510.72,288.82,511.44,288.25 Q508.71,286.75,505.98,285.31 C499.69,281.91,493,278.87,487.05,275 Z"></path>
  

  <path name="ACDFG" d="M347,457.37 C347.51,455.3,348,453.2,348.38,451.11 L346.96999999999997,449.71000000000004 C337.2,439.90000000000003,323.08,434.35,309.60999999999996,439.76000000000005 C305.1468821542555,441.6780295793484,301.1190542823749,444.48118005775177,297.77,448 C299.77,452.14,301.31,456.54,302.97999999999996,460.71 C305.04999999999995,465.88,306.97999999999996,471.04999999999995,309.05999999999995,476.12 C312.53999999999996,472.5,316.5199999999999,469.26,321.62999999999994,468.77 C328.41999999999996,468.12,334.1599999999999,472.69,338.47999999999996,477.4 C338.95,477.90999999999997,339.4,478.4,339.85999999999996,478.92999999999995 L340.37999999999994,477.62999999999994 C343.02189636422577,471.02672269737957,345.2331944774014,464.2592151788088,346.9999999999999,457.37000000000023 Z"></path>
  

  <path name="ABCEG" d="M420.21,416.71 C419.81,415.14,419.41999999999996,413.57,419.03999999999996,411.98999999999995 C409.66999999999996,409.86999999999995,399.93999999999994,408.98999999999995,391.28,412.98999999999995 C385.21973214611745,415.94146549300643,380.48266600731677,421.0530737587455,378,427.32 C376.43552733887816,431.41708707439454,375.42656657584064,435.705170317304,375,440.07 C381.6302252829813,446.19915167364695,388.66255337264965,451.8784665204099,396.04999999999995,457.06999999999994 L396.17,456.24 C397.33000000000004,449.39,400.85,442.99,407.47,440.11 C413.05,437.68,418.77000000000004,438.54,424.40000000000003,439.93 C424.31000000000006,439.34000000000003,424.23,438.75,424.15000000000003,438.15000000000003 C423.2374689105127,430.93545796271553,421.9220807805382,423.77760986458065,420.20999999999975,416.7099999999989 Z"></path>
  

  <path name="ABCG" d="M374,446.92 C372.73,454.92,371.37,463.05,369.7,471.07 C372.64,473.59,375.64,476.07,378.7,478.44 C383.07,481.83,387.52,485.11,392.07,488.24 C392.91740367245404,484.6890037007823,393.5188313684438,481.08377878982185,393.87,477.4500000000002 C394.62,470.65999999999997,394.87,463.83,395.97,457.07 C388.5825533726498,451.87846652041003,381.55022528298144,446.19915167364695,374.92000000000013,440.07000000000005 C374.63,442.34,374.36,444.63,374,446.92 Z"></path>
  

  <path name="ACG" d="M369.7,471.07 C368.36,477.51,366.83,483.89,364.96,490.13 C363.96,493.46999999999997,362.89,496.82,361.73999999999995,500.13 C364.40028013598914,501.97831527597504,367.3461895736821,503.376946591577,370.46,504.27 C377.56,506.16999999999996,384.34999999999997,503.72999999999996,388.31,497.46999999999997 C390.0480322492063,494.60320369183097,391.3268294142362,491.48212881675784,392.1000000000001,488.21999999999997 C387.55,485.09,383.1,481.80999999999995,378.73,478.41999999999996 C375.64,476.06,372.64,473.59,369.7,471.07 Z"></path>
  

  <path name="BDF" d="M148.45,260.43 L147.81,259.57 C143.38,253.68,138.71,247.95,134.5,241.91 L131.31,237.29 C127.37683873759457,237.94455030899786,123.52947082937847,239.03804807541326,119.84000000000003,240.54999999999998 C113.84,243.17999999999998,108.71000000000001,247.79,108.84,254.79999999999998 C108.96000000000001,260.51,111.94,266.28,115.41,270.97999999999996 C118.41,269.79999999999995,121.41,268.67999999999995,124.41,267.65999999999997 C132.36,265,140.36,262.54,148.45,260.43 Z"></path>
  

  <path name="ABCDE" d="M431,349.49 C435.74,356.09000000000003,440.95,362.36,446,368.73 C455.82,366.34000000000003,466,365.51,476,364.01 C471.38,357.48,466.64,351.01,461.63,344.83 C461.27,344.39,460.92,343.94,460.56,343.49 C456.31,344.49,452.04,345.34000000000003,447.73,346.21000000000004 C442.18,347.35,436.57,348.35,431,349.49 Z"></path>
  

  <path name="ABCDG" d="M353.68,420.34 C351.51,430.51,350.42,440.9,348.40000000000003,451.10999999999996 C355.32000000000005,458.02,362.31000000000006,464.73999999999995,369.70000000000005,471.10999999999996 C371.37000000000006,463.10999999999996,372.70000000000005,454.98999999999995,374.00000000000006,446.96 C374.36000000000007,444.66999999999996,374.63000000000005,442.38,374.95000000000005,440.10999999999996 C371.63000000000005,437.10999999999996,368.36000000000007,434.10999999999996,365.13000000000005,431.10999999999996 C361.24,427.52,357.5,423.86,353.68,420.34 Z"></path>
  

  <path name="BCDG" d="M401.82,149.16 C400.63,149.68,399.38,150.26,398.09999999999997,150.84 C398.09999999999997,156.23,397.96999999999997,161.6,397.73999999999995,166.9 C397.53999999999996,171.84,396.79999999999995,177.22,396.38999999999993,182.64000000000001 C402.2699999999999,180.26000000000002,408.06999999999994,177.79000000000002,414.04999999999995,175.64000000000001 Q419.21,173.8,424.35999999999996,172.02 C424.35999999999996,168.74,424.66999999999996,165.43,424.81999999999994,162.21 C425.1499999999999,154.95000000000002,425.42999999999995,147.70000000000002,425.0999999999999,140.44 C425.0999999999999,139.75,425.0399999999999,139.06,424.9999999999999,138.35 C424.1799999999999,138.71,423.3699999999999,139.07999999999998,422.5599999999999,139.47 C415.67,142.75,408.79,146.07,401.82,149.16 Z"></path>
  

  <path name="ABCDFG" d="M333.67,405.46 C321.8147864439869,399.29634582207717,308.65175758869105,396.07246694662695,295.28999999999996,396.05999999999995 C281.5047996015402,396.1442502545991,267.8751229777003,398.9796581628761,255.20000000000016,404.4 C252.76000000000002,405.4,250.35000000000002,406.51,247.96,407.64 C247.77,411.96,247.46,416.28,247.16,420.64 C246.79,425.96999999999997,246.46,431.25,246.31,436.52 C256,431.33,266,427.2,277.43,430 C284.1342321449999,431.7181531939477,290.0080744386195,435.7663897053017,294,441.4200000000001 C295.4520067035254,443.4815531911372,296.7202092839444,445.66660935212303,297.79,447.95000000000005 C301.14957383148965,444.4469591231695,305.1840668819059,441.66091375361566,309.65000000000003,439.76 C323.12000000000006,434.34999999999997,337.24,439.9,347.01000000000005,449.71 L348.4200000000001,451.10999999999996 C350.4200000000001,440.9,351.5300000000001,430.50999999999993,353.70000000000005,420.34 C347.57,414.71,341.23,409.44,333.67,405.46 Z"></path>
  

  <path name="BCDEFG" d="M375.44,187 C362.83,185.22,355.44,171.84,350.44,160.88 C343.71999999999997,168.88,337.69,177.54,331.32,185.88 C334.45,194.29999999999998,337.86,202.57,342.96999999999997,210.16 C350.6543392570884,221.6895744952078,361.4914577913592,230.7667894110048,374.1899999999999,236.31 C387.13999999999993,241.89000000000001,401.34999999999997,243.67000000000002,415.35999999999996,243.46 C416.87999999999994,243.46,418.35999999999996,243.4,419.91999999999996,243.35 C423.11999999999995,237.07,426.69999999999993,230.97,430.21999999999997,224.76999999999998 C431.32,222.82999999999998,432.38,220.88,433.41999999999996,218.92 C421.65999999999997,219.07,408.47999999999996,218.45999999999998,401.15,208.22 C395.91999999999996,200.91,395.66999999999996,191.76,396.34999999999997,182.7 L395.55999999999995,183.01999999999998 C389.29,185.5,382.35,187.93,375.44,187 Z"></path>
  

  <path name="ABCDEF" d="M411.78,263.61 C408.09029411446977,276.97502847001476,407.6037988390486,291.021723042034,410.3599999999999,304.61 C413.15999999999997,318.41,419.15999999999997,331.40000000000003,426.69999999999993,343.22 C428.05999999999995,345.36,429.50999999999993,347.45000000000005,430.98999999999995,349.51000000000005 C436.56999999999994,348.37000000000006,442.17999999999995,347.37000000000006,447.74999999999994,346.2300000000001 C452.05999999999995,345.36000000000007,456.3299999999999,344.4700000000001,460.5799999999999,343.51000000000005 C452.81999999999994,333.65000000000003,445.4799999999999,321.38000000000005,449.9599999999999,308.51000000000005 C452.36999999999995,301.59000000000003,457.3999999999999,296.51000000000005,463.17999999999995,292.06000000000006 L463,292 C456.74,288.43,450.32,284.52,445.89,278.7 C437.25,267.36,441.89,253.42999999999998,448.03,242.07999999999998 C438.65999999999997,242.30999999999997,429.29999999999995,243.01999999999998,419.92999999999995,243.32999999999998 C416.52899238971673,249.79444462594762,413.79811454192503,256.58980692695565,411.78000000000003,263.60999999999996 Z"></path>
  

  <path name="ABCFG" d="M248,407.64 C239.17,411.82,230.57999999999998,416.64,221.73,420.75 C221.5,426.89,220.98999999999998,433.03,220.73,439.18 C220.57,442.94,220.51,446.7,220.48999999999998,450.46 C226.17,447.90999999999997,231.60999999999999,444.65,237.05999999999997,441.65999999999997 C240.14,439.96999999999997,243.22999999999996,438.18999999999994,246.34999999999997,436.51 C246.49999999999997,431.24,246.82999999999996,425.96,247.19999999999996,420.63 C247.46,416.28,247.77,412,248,407.64 Z"></path>
  

  <path name="BCDEF" d="M420,243.29 C429.37,242.98,438.73,242.29,448.1,242.04 L448.23,241.81 C452.44,234.03,456.65000000000003,226.26,460.61,218.37 C453.44,218.43,446.28000000000003,218.66,439.07,218.77 C437.27,218.77,435.40999999999997,218.84,433.5,218.86 C432.5,220.86,431.4,222.77,430.3,224.71 C426.74,230.91,423.16,237,420,243.29 Z"></path>
  

  <path name="ABCDEG" d="M408.45,355.62 C395.22999999999996,360.62,382.96,368.21,373.53,378.84000000000003 C364.23999999999995,389.31000000000006,358.17999999999995,402.12,354.77,415.63000000000005 C354.37,417.19000000000005,354.01,418.76000000000005,353.68,420.34000000000003 C357.5,423.86,361.24,427.52000000000004,365.13,431.09000000000003 C368.36,434.09000000000003,371.63,437.09000000000003,374.95,440.09000000000003 C375.39088370524513,435.71606854384504,376.4167040370547,431.42107653164555,378.00000000000006,427.32 C380.48475894574244,421.0568229242084,385.22157519021954,415.949051190706,391.28,412.99999999999994 C399.94,409,409.66999999999996,409.91,419.03999999999996,412 C417.78,406.65,416.81999999999994,401.22,417.22999999999996,395.7 C417.5328696164143,389.0514132187254,420.43015613845637,382.7865247664783,425.3,378.25 C430.59999999999997,373.44,437.53999999999996,370.93,444.34999999999997,369.15 C444.9,369,445.45,368.87,446.01,368.73999999999995 C440.94,362.36999999999995,435.73,356.09999999999997,431.01,349.49999999999994 C423.33916529324364,350.9365924194745,415.79521641953244,352.9830891884068,408.4499999999997,355.62 Z"></path>
  

  <path name="BDEF" d="M147.81,259.57 L148.45,260.43 C154.1,258.96,159.78,257.64,165.51,256.53000000000003 C169.76999999999998,255.71000000000004,174.66,254.98000000000002,179.51,253.89000000000004 V253.89000000000004 C175.59,247.89000000000004,170.95,242.47000000000006,166.51,236.89000000000004 C164.89,234.89000000000004,163.32999999999998,232.79000000000005,161.79999999999998,230.70000000000005 L161.29999999999998,230.84000000000003 C154.01999999999998,232.84000000000003,146.58999999999997,234.41000000000003,139.17,235.84000000000003 C136.57999999999998,236.35000000000002,133.94,236.78000000000003,131.30999999999997,237.29000000000002 L134.49999999999997,241.91000000000003 C138.71,248,143.38,253.68,147.81,259.57 Z"></path>
  

  <path name="ACDEFG" d="M254.41,221.56 C268.11,223.29,282.21,222.35,295,216.86 C308,211.29000000000002,318.68,201.72000000000003,327.47,190.79000000000002 C328.79,189.15000000000003,330.08000000000004,187.49,331.36,185.79000000000002 C329.55,180.92000000000002,327.83000000000004,176.01000000000002,325.93,171.14000000000001 Q323.22,164.20000000000002,320.02,157.46 C312.33,167.38,302.49,176.89000000000001,288.84999999999997,173.72 C281.60999999999996,172.03,275.57,168.03,269.84999999999997,163.39 C267.84999999999997,169.95999999999998,265.84999999999997,176.63,262.15999999999997,182.45999999999998 C253.81999999999996,195.54,237.89999999999998,192.23999999999998,225.05999999999997,189.29 L224.23999999999998,189.1 C226.17,198.1,228.23999999999998,206.98,230.23999999999998,215.9 C238.16,218.28,246.09,220.5,254.41,221.56 Z"></path>
  

  <path name="ABCEFG" d="M246,377.9 C242.84177382960053,364.050612426219,235.69384776839104,351.43049005161276,225.43999999999997,341.6 C215.53,332.09,203.54,324.85999999999996,191.44,318.52 L186.77,321.78999999999996 C181.43,325.52,176.21,329.28,171.14000000000001,333.21999999999997 C181.5,338.36999999999995,191.49,345.46999999999997,193.52,357.7 C194.99,366.53999999999996,191.74,374.4,187.52,381.9 C192.89000000000001,382.21,198.20000000000002,382.84,203.25,384.9 C216.77,390.51,222.1,404.04999999999995,221.82,417.96999999999997 C221.82,418.88,221.76,419.79999999999995,221.73,420.71 C230.57999999999998,416.57,239.17,411.78,248,407.59999999999997 C248.41,397.69,248.25,387.79,246,377.9 Z"></path>
  

  <path name="ABCDEFG" d="M295,216.86 C282.21,222.35000000000002,268.11,223.29000000000002,254.41,221.56 C246.09,220.5,238.16,218.28,230.25,215.93 L230.31,216.20000000000002 C233.31,229.76000000000002,236.24,243.45000000000002,235.4,257.44 C234.58200298813415,271.29840547392666,229.06137178641922,284.46325892108325,219.74999999999994,294.7600000000001 C211.57,304.03999999999996,201.49,311.43,191.38,318.52 C203.5,324.85999999999996,215.49,332.09,225.38,341.59999999999997 C235.65582714994176,351.4227475327244,242.825050816339,364.0436407960716,246,377.90000000000003 C248.29,387.78999999999996,248.45,397.69,248,407.64 C250.39,406.51,252.8,405.40999999999997,255.24,404.4 C267.9151229777002,398.97965816287615,281.54479960154015,396.1442502545991,295.33000000000004,396.06000000000006 C308.6917575886911,396.07246694662695,321.854786443987,399.29634582207717,333.71000000000004,405.46 C341.27000000000004,409.46,347.61,414.71,353.71000000000004,420.34 C354.04,418.76,354.40000000000003,417.19,354.8,415.63 C358.21000000000004,402.12,364.27000000000004,389.31,373.56,378.84 C382.99,368.21,395.26,360.59999999999997,408.48,355.62 C415.81192696724025,352.9817402593889,423.34242627735506,350.9319196212449,431.00000000000006,349.49 C429.52,347.43,428.07,345.34000000000003,426.71,343.2 C419.16999999999996,331.38,413.16999999999996,318.39,410.37,304.59 C407.6137988390487,291.0017230420339,408.1002941144699,276.9550284700147,411.79,263.59 C413.8260486501085,256.56065113226646,416.5770851418617,249.75845371660392,420.00000000000006,243.28999999999982 C418.48,243.34,417,243.38,415.44,243.4 C401.44,243.61,387.22,241.83,374.27,236.25 C361.55309879764155,230.71487913839303,350.69777760262684,221.6369562330641,342.99999999999994,210.1 C337.89,202.51,334.48,194.24,331.35,185.82 C330.07000000000005,187.48999999999998,328.78000000000003,189.15,327.46000000000004,190.82 C318.68,201.72,308,211.29,295,216.86 Z"></path>
  

  <path name="ADEFG" d="M230.25,215.93 C228.25,207.01000000000002,226.25,198.08,224.25,189.13 C214.44,186.85,204.69,184.21,194.88,181.88 C196.22,187.76999999999998,197.78,193.63,199.42,199.5 C200.2,202.27,201.14999999999998,205.25,202.07,208.35 C206.29999999999998,209.35,210.51999999999998,210.35,214.7,211.46 C220,212.82,225.11,214.4,230.25,215.93 Z"></path>
  

  <path name="ABEFG" d="M191.38,318.52 L191,318.32 C181.94,313.59999999999997,172.72,309.19,163.54,304.7 C158.13,308.25,152.64,311.7,147.43,315.52 C145.59,316.87,143.81,318.29999999999995,142.05,319.75 C149.87,323.66,157.84,327.22,165.86,330.75 C167.59,331.51,169.34,332.32,171.08,333.18 C176.15,329.24,181.37,325.48,186.71,321.75 Z"></path>
  

  <path name="ABDEFG" d="M191.38,318.52 C201.49,311.43,211.57,304.03999999999996,219.75,294.76 C229.06137178641927,284.46325892108314,234.58200298813418,271.2984054739266,235.4,257.44000000000005 C236.24,243.44,233.33,229.76,230.31,216.2 L230.25,215.92999999999998 C225.11,214.39999999999998,219.98,212.81999999999996,214.74,211.45999999999998 C210.56,210.36999999999998,206.34,209.32,202.11,208.34999999999997 C205.21,218.77999999999997,207.99,230.48999999999995,202.94000000000003,239.81999999999996 C198.39000000000001,248.21999999999997,189.00000000000003,251.74999999999997,179.52000000000004,253.88999999999996 C183.25000000000003,259.54999999999995,187.06000000000003,265.79999999999995,188.13000000000005,272.59999999999997 C190.42000000000004,287.10999999999996,175.75000000000006,296.59999999999997,165.35000000000005,303.51 L163.54000000000005,304.7 C172.72000000000006,309.19,181.94000000000005,313.59999999999997,191.00000000000006,318.32 Z"></path>
  

  <path name="CDEFG" d="M331.36,185.82 C337.73,177.5,343.76,168.88,350.48,160.82 C350.03000000000003,159.82,349.61,158.82,349.20000000000005,157.9 C345.64000000000004,149.67000000000002,342.20000000000005,141.49,338.40000000000003,133.42000000000002 C332.57000000000005,140.56,327.13000000000005,147.99,321.58000000000004,155.42000000000002 Q320.82000000000005,156.42000000000002,320.02000000000004,157.42000000000002 Q323.20000000000005,164.17000000000002,325.93000000000006,171.10000000000002 C327.83,176,329.55,181,331.36,185.82 Z"></path>
  

  <path name="ACE" d="M246.8,144.31 V144.31 C248.23000000000002,137.31,249.41000000000003,130.26,250.99,123.31 C251.54000000000002,120.88,252.14000000000001,118.46000000000001,252.77,116.05 C249.16,112.75,245.44,109.67999999999999,240.60000000000002,108.11 C234.3,106.06,227.23000000000002,107.11,222.69000000000003,112.22 C219.20000000000002,116.12,218.17000000000002,120.93,217.77000000000004,125.88 L218.38000000000005,126.17 C228.5,131,237.79,137.54,246.8,144.31 Z"></path>
  

  <path name="ADEG" d="M194.92,181.88 C204.73,184.21,214.48,186.88,224.29,189.13 C223.2,184.04,222.13,178.95,221.15,173.85999999999999 Q220.04,168.04999999999998,219.15,162.11999999999998 L218.72,161.99999999999997 C211.51,159.91999999999996,204.49,157.31999999999996,197.37,154.99999999999997 C195.44,154.35999999999999,193.16,153.57999999999998,190.70000000000002,152.85999999999999 C190.84,155.04,191.00000000000003,157.23,191.19000000000003,159.39999999999998 C191.9119849071645,166.97057375058634,193.15831028185949,174.4819395476758,194.91999999999996,181.87999999999982 Z"></path>
  

  <path name="ACEG" d="M238.72,162.68 C244.23,158.9,245.56,150.39000000000001,246.8,144.31 C237.8,137.54,228.5,131.03,218.39000000000001,126.1 L217.78,125.80999999999999 C217.61,127.86999999999999,217.55,129.95999999999998,217.46,132.01999999999998 C217.13272461597376,142.08525520575142,217.71508973443898,152.15950237000547,219.20000000000005,162.11999999999998 C225.09,163.83,233.2,166.47,238.72,162.68 Z"></path>
  

  <path name="ACDEG" d="M224.29,189.13 L225.10999999999999,189.32 C237.95,192.32,253.86999999999998,195.57,262.21,182.48999999999998 C265.93,176.65999999999997,267.91999999999996,169.98999999999998,269.9,163.42 C264.45,158.95,259.34999999999997,153.88,253.89999999999998,149.70999999999998 C251.54999999999998,147.90999999999997,249.18999999999997,146.09999999999997,246.80999999999997,144.30999999999997 C245.56999999999996,150.39,244.23999999999998,158.89999999999998,238.72999999999996,162.67999999999998 S225.09999999999997,163.82999999999998,219.20999999999995,162.11999999999998 Q220.04999999999995,168.03999999999996,221.20999999999995,173.85999999999999 C222.13,179,223.2,184,224.29,189.13 Z"></path>
  

  <path name="DEG" d="M194.92,181.88 C193.1733178924554,174.46760826767527,191.94369114609438,166.94282720027022,191.23999999999995,159.35999999999964 C191.04999999999998,157.19,190.89,154.99999999999997,190.74999999999997,152.82 C180.30999999999997,149.72,166.66999999999996,147.43,163.06999999999996,159.48 C161.45999999999995,164.85,162.30999999999997,170.58999999999997,163.77999999999997,175.98999999999998 C170.77999999999997,176.92999999999998,177.77999999999997,178.14999999999998,184.77999999999997,179.6 C188.16,180.3,191.54,181.07,194.92,181.88 Z"></path>
  

  <path name="BDEFG" d="M179.51,253.86 V253.86 C188.98999999999998,251.72000000000003,198.38,248.19000000000003,202.93,239.79000000000002 C207.98000000000002,230.46,205.20000000000002,218.79000000000002,202.1,208.32000000000002 C192.9311200023153,206.11766686361926,183.61784535557658,204.5671252647363,174.23000000000053,203.68000000000015 C176.38,208.85000000000002,178.76,214.86000000000004,177.01999999999998,220.28000000000003 C175.01999999999998,226.42000000000002,167.48999999999998,229.05000000000004,161.79,230.65000000000003 C163.32,232.74000000000004,164.88,234.81000000000003,166.5,236.84000000000003 C171,242.44,175.59,247.9,179.51,253.86 Z"></path>
  

  <path name="DEFG" d="M199.46,199.5 C197.82000000000002,193.63,196.26000000000002,187.77,194.92000000000002,181.88 C191.54000000000002,181.07,188.16000000000003,180.29999999999998,184.77,179.6 C177.77,178.15,170.77,176.93,163.77,175.98999999999998 C164.20000000000002,177.57,164.68,179.11999999999998,165.17000000000002,180.61999999999998 C167.52,187.79999999999998,170.55,194.73999999999998,173.41000000000003,201.72999999999996 C173.67000000000002,202.37999999999997,173.95000000000002,203.03999999999996,174.23000000000002,203.72999999999996 C183.61784535557607,204.6171252647361,192.93112000231483,206.16766686361905,202.09999999999954,208.36999999999986 C201.19,205.25,200.24,202.27,199.46,199.5 Z"></path>
  

  <path name="BDG" d="M398.1,150.84 C399.38,150.26,400.63,149.68,401.82000000000005,149.16 C408.82000000000005,146.07,415.6700000000001,142.75,422.56000000000006,139.49 C423.37000000000006,139.10000000000002,424.18000000000006,138.73000000000002,425.00000000000006,138.37 C424.65000000000003,132.29,423.83000000000004,125.65,420.28000000000003,120.65 C414.35,112.28,404.06000000000006,115.17,395.28000000000003,119.89 Q395.81,122.5,396.23,125.13 C397.52118635921124,133.6383068037751,398.14641781379333,142.23440343334985,398.1,150.8400000000002 Z"></path>
  

  <path name="BCDFG" d="M353.74,157.05 C352.63,158.3,351.55,159.56,350.48,160.84 C355.41,171.84,362.83000000000004,185.18,375.48,186.96 C382.39000000000004,187.96,389.33000000000004,185.5,395.64000000000004,182.96 L396.43000000000006,182.64000000000001 C396.8400000000001,177.22000000000003,397.58000000000004,171.84,397.7800000000001,166.9 C398.0100000000001,161.6,398.1600000000001,156.23000000000002,398.1400000000001,150.84 C392.9600000000001,153.19,387.1400000000001,155.53,381.7300000000001,154.22 C375.4500000000001,152.7,371.93000000000006,145.39,369.7300000000001,139.86 C364.15,145.36,359,151.19,353.74,157.05 Z"></path>
  

  <path name="BDFG" d="M381.69,154.22 C387.11,155.53,392.92,153.22,398.1,150.84 C398.15965592863574,142.23544636830917,397.5477988238857,133.63935556878994,396.26999999999987,125.12999999999877 Q395.85,122.50999999999999,395.32000000000005,119.89 C391.49208745294226,122.0155688843512,387.8165617192143,124.40466061127435,384.32,127.04000000000005 C379.11920107758783,130.94406041952396,374.21570001136837,135.22919223063053,369.65000000000026,139.8599999999998 C371.89,145.39,375.41,152.7,381.69,154.22 Z"></path>
  

  <path name="CDFG" d="M348.57,121.86 C345,125.59,341.64,129.47,338.4,133.44 C342.16999999999996,141.51,345.64,149.69,349.2,157.92 C349.61,158.92,350.03,159.83999999999997,350.47999999999996,160.83999999999997 C351.54999999999995,159.55999999999997,352.62999999999994,158.29999999999998,353.73999999999995,157.04999999999998 C358.96,151.18999999999997,364.15,145.35999999999999,369.65999999999997,139.85999999999999 L369.53,139.55999999999997 C366.67999999999995,132.42999999999998,364.40999999999997,125.04999999999997,361.65,117.87999999999997 C360.81,115.67999999999996,359.96999999999997,113.43999999999997,359.03,111.25999999999996 Q353.71,116.47,348.57,121.86 Z"></path>
  

  <path name="ACDEF" d="M269.94,163.29 L269.94,163.42 C275.61,168.05999999999997,281.65,172.06,288.94,173.75 C302.58,176.92,312.42,167.41,320.11,157.49 C316.11,149.02,311.65000000000003,140.77,306.88,132.72 L306.28,131.72 C302.94,136.72,298.2,142.29,291.71999999999997,142.46 C286.71999999999997,142.6,282.08,139.97,278.03,136.98000000000002 Q276.89,140.17000000000002,275.88,143.41000000000003 C273.75,150,271.94,156.68,269.94,163.29 Z"></path>
  

  <path name="ACDE" d="M246.81,144.27 V144.27 C249.19,146.06,251.55,147.87,253.9,149.67000000000002 C259.36,153.84,264.46,158.91000000000003,269.9,163.38000000000002 L269.9,163.25000000000003 C271.9,156.64000000000001,273.71,149.97000000000003,275.75,143.38000000000002 Q276.75,140.14000000000001,277.9,136.95000000000002 C276.65999999999997,136.04000000000002,275.46999999999997,135.09,274.34,134.18 C268.42999999999995,129.39000000000001,262.39,124.72,256.73999999999995,119.63000000000001 C255.37999999999994,118.41000000000001,254.06999999999996,117.16000000000001,252.73999999999995,115.94000000000001 C252.10999999999996,118.35000000000001,251.50999999999996,120.77000000000001,250.95999999999995,123.20000000000002 C249.42,130.22,248.24,137.26,246.81,144.27 Z"></path>
  

  <path name="CDEF" d="M320,157.49 Q320.8,156.49,321.56,155.49 C327.11,148.05,332.56,140.62,338.38,133.49 C335.94,128.27,333.38,123.10000000000001,330.58,118.00000000000001 Q327.09999999999997,111.68,323.31,105.53000000000002 C321.66,107.60000000000001,320.16,109.80000000000001,318.69,111.96000000000001 C314.37,118.33000000000001,310.6,125.04,306.38,131.46 C306.32,131.57000000000002,306.24,131.67000000000002,306.17,131.78 L306.77000000000004,132.78 C311.56,140.77,316,149,320,157.49 Z"></path>
  

  <path name="CDF" d="M338.4,133.44 C341.64,129.44,345,125.59,348.57,121.86 S355.48,114.73,359.03,111.26 C357.26,107.2,355.10999999999996,103.34,351.76,100.32000000000001 C346.8088169989649,95.6366541844316,339.5270278788702,94.3901507380882,333.3,97.16000000000001 C329.3419170510562,99.0823351734183,325.9101560232346,101.93756034856588,323.3,105.48000000000002 Q327.08,111.63000000000002,330.57,117.95000000000002 C333.4,123.05,336,128.22,338.4,133.44 Z"></path>
  

  <path name="CDEG" d="M425.88,182.29 C428.4,189.22,435,191.60999999999999,441.88,191.79999999999998 C443.09,191.79999999999998,444.29,191.79999999999998,445.49,191.79999999999998 C446.18,189.79999999999998,446.85,187.89,447.49,185.91 C449.80512180129915,178.52601076188057,451.6258187600712,170.9960090278032,452.93999999999994,163.37000000000032 C443.24,165.78,433.8,168.77,424.38,172.01 C424.27340237904616,175.49810952444466,424.78113705833744,178.97778452652074,425.88,182.28999999999996 Z"></path>
  

  <path name="BCDF" d="M488.3,305.46 C484.68,308.91999999999996,481.61,313.04999999999995,480.63,317.98999999999995 C479.37,324.28999999999996,482.13,331.0799999999999,485.68,336.22999999999996 Q488.08,335.33,490.46,334.34 C498.63,330.89,506.91999999999996,327.34,514.88,323.19 C510.15,319.55,505.49,315.83,500.5,312.53 C496.56015347537175,309.96098099617586,492.48785701634176,307.6010518186888,488.29999999999995,305.46000000000004 Z"></path>
  

  <path name="BCD" d="M485.68,336.23 C485.74,336.32,485.8,336.42,485.87,336.51 C491.12,343.99,498.92,349.75,505.05,356.68 C512.7712078117987,353.9346557585881,520.3447276997775,350.7904266997622,527.7400000000002,347.2599999999999 C530.74,345.86,533.65,344.38,536.5600000000001,342.84 C530.6459075977247,336.16342867866666,524.065062549959,330.10864914643,516.9200000000002,324.7700000000001 L514.9200000000001,323.19 C506.9200000000001,327.31,498.6700000000001,330.89,490.50000000000006,334.34 Q488.08,335.33,485.68,336.23 Z"></path>
  

  <path name="BD" d="M505.05,356.68 C508.2210459491298,360.09313998453337,510.7453955164707,364.05416635261594,512.5,368.37 C514.84,374.5,514.18,381.09000000000003,508.94,385.47 C504.8,388.92,499.58,390.27000000000004,494.32,391.03000000000003 C499.4725761995501,399.07963158071226,503.72477477084,407.67121891481685,507,416.65000000000003 C507.4,417.82,507.78,419,508.15,420.19 Q512.4499999999999,419.35,516.67,418.19 C529.67,414.62,543.17,407.84,549.7199999999999,395.44 C556.56,382.51,552.8699999999999,367.37,545.7199999999999,355.44 C543.0404865064589,350.9761868983245,539.9647519779418,346.76253099908274,536.53,342.85 C533.6199999999999,344.39000000000004,530.6899999999998,345.85,527.7099999999998,347.27000000000004 C520.324325608429,350.79607805777835,512.7608453285777,353.9369584387757,505.05000000000024,356.6799999999999 Z"></path>
  

  <path name="ACF" d="M487,274.94 H487 C492.93,278.86,499.64,281.94,505.92,285.23 Q508.65000000000003,286.67,511.38,288.17 C516.02,284.44,520.57,280.04,522.62,274.42 C526.35,264.18,518.24,257.11,509.45,252.48000000000002 C502.47770785811065,260.4606167598283,494.97751096209095,267.96415450079064,487.00000000000057,274.9399999999995 Z"></path>
  

  <path name="CF" d="M510.38,251.52 C510.09,251.85000000000002,509.79,252.17000000000002,509.5,252.52 C518.29,257.15000000000003,526.4,264.22,522.67,274.46000000000004 C520.67,280.08000000000004,516.0699999999999,284.46000000000004,511.42999999999995,288.21000000000004 C521.5887663912,293.60716902427504,531.3085713925304,299.79280344204636,540.4999999999998,306.7099999999999 C547.36,301.22,553.5,294.92,557.81,287.23 C564.7099999999999,274.82,565.15,259.90000000000003,557.04,247.94000000000003 C550.04,237.56000000000003,539.29,232.22000000000003,527.9399999999999,228.21000000000004 C526.4699999999999,230.47000000000003,524.9399999999999,232.70000000000005,523.41,234.91000000000003 C519.4285480697973,240.72123591122119,515.0761677648699,246.26943521013487,510.3799999999997,251.52000000000032 Z"></path>
  

  <path name="CE" d="M473.18,189.8 C476.68140186756546,189.57032322508016,480.1978058283081,189.7989231001571,483.63999999999993,190.48000000000002 C489.91999999999996,191.84000000000003,495.95,195.68,497.64,202.22000000000003 C499.24,208.55000000000004,496.64,214.68000000000004,493.64,220.16000000000003 C503.2921343567615,221.30475764464276,512.818784287187,223.33327129813466,522.1000000000003,226.22000000000006 Q525.0400000000001,227.15000000000003,527.94,228.22000000000003 C530.2292016916057,224.7673648482649,532.2549384763057,221.14711247560786,534,217.38999999999996 C539.77,204.75,541.48,189.51,533.62,177.32999999999998 S511.15,160.07,497.25,158.80999999999997 C492.2799289770564,158.40817153076,487.2842425151604,158.44163225722951,482.3199999999999,158.90999999999997 C482.09999999999997,159.90999999999997,481.89,160.90999999999997,481.65,161.90999999999997 C479.3913948300801,171.36888901193674,476.5628999715143,180.68255153913887,473.18000000000006,189.79999999999987 Z"></path>
  

  <path name="CEF" d="M493.64,220.16 L493.21999999999997,220.94 C489.71,227.24,485.94,233.39,482.42999999999995,239.7 C481.73999999999995,240.94,481.04999999999995,242.20999999999998,480.42999999999995,243.5 C486.91095530508494,244.33165272033585,493.2819275177176,245.8673923379073,499.43000000000006,248.08000000000007 C502.8972114452646,249.33258290438016,506.28078123152903,250.80558811241826,509.56000000000006,252.49000000000007 C509.84999999999997,252.17000000000002,510.1499999999999,251.85000000000002,510.43999999999994,251.49 C515.1269085872979,246.22887109866912,519.4692724585823,240.67064534342504,523.4399999999998,234.85000000000014 C524.9699999999999,232.64000000000001,526.4999999999999,230.41000000000003,527.9699999999999,228.15000000000003 Q525.0699999999999,227.15000000000003,522.1299999999999,226.15000000000003 C512.836777634893,223.2851945164681,503.30004449406107,221.2801039052507,493.64000000000004,220.16 Z"></path>
  

  <path name="ABC" d="M396,457.07 C394.92,463.83,394.65,470.65999999999997,393.9,477.45 C393.54883136844376,481.08377878982145,392.94740367245413,484.6890037007819,392.1000000000001,488.2399999999996 C399.1385216691182,493.14119957266126,406.54752286096715,497.48763528990116,414.26000000000005,501.24 C417.26,502.66,420.19,503.99,423.19,505.24 C424.67630219136345,496.75918442310626,425.61491111078624,488.1914553187666,426,479.5899999999999 Q426.19,476.44,426.35,473.31 C416.95555826138855,469.4882580961822,407.93675200921894,464.8014248545202,399.40999999999997,459.31 C398.23,458.59,397.11,457.84,396,457.07 Z"></path>
  

  <path name="BDE" d="M494.32,391 C492.42,391.27,490.53,391.47,488.67,391.66 C481.93,392.36,475.14000000000004,392.66,468.43,393.73 C467.25,393.91,466.02,394.11,464.78000000000003,394.35 C468.9070284170107,400.4356069614664,472.3353147435371,406.96679431738323,475,413.82000000000005 C476.0995088509827,416.76385936307247,477.02772733642803,419.7688832368161,477.78,422.82 C487.9684123723801,422.9665880434501,498.1458864117546,422.09222309141694,508.1600000000003,420.2099999999999 C507.78999999999996,419.02,507.40999999999997,417.84,507.01,416.66999999999996 C503.73495798655654,407.6735199666816,499.4793172881014,399.0649859454569,494.32000000000005,391.00000000000017 Z"></path>
  

  <path name="ACD" d="M353.33,493.23 C348.58,488.72,344.27,483.74,339.85999999999996,478.88 C337.6637352739244,484.8362194199947,334.82710470985575,490.53630447781586,331.4000000000001,495.87999999999994 C329.5125014087422,498.74060960560485,327.4729041874564,501.49790470344783,325.2899999999999,504.14000000000004 C332.28187902031846,513.0880093802342,340.27376293784266,521.2073876675594,349.11,528.3400000000001 C354.2511083240073,519.381836896446,358.4822179021486,509.93135382444575,361.73999999999984,500.1300000000003 C358.74510400545523,498.0739362122788,355.93152018806154,495.7655261837393,353.33,493.2300000000001 Z"></path>
  

  <path name="CDE" d="M455.85,162.68 C454.85,162.91,453.85,163.16,452.92,163.4 C451.6058187600713,171.02600902780276,449.7851218012993,178.55601076188012,447.47000000000025,185.93999999999943 C446.84000000000003,187.94,446.17,189.88,445.47,191.82999999999998 C451.07000000000005,191.77999999999997,456.68,191.29999999999998,462.24,190.77999999999997 C465.84000000000003,190.43999999999997,469.51,189.96999999999997,473.17,189.77999999999997 C476.56190439509976,180.6730178715556,479.40041042934723,171.36939691695164,481.66999999999985,161.92000000000058 C481.91,160.91999999999996,482.12,159.91999999999996,482.34000000000003,158.91999999999996 C480.16,159.08999999999995,477.98,159.31999999999996,475.8,159.56999999999996 C469.0962411149051,160.22621986503927,462.43540668510036,161.26457550798128,455.8500000000007,162.6799999999999 Z"></path>
  

  <path name="AC" d="M392.1,488.24 C391.3268294142362,491.5021288167579,390.0480322492063,494.623203691831,388.31000000000006,497.49 C384.31,503.75,377.56,506.19,370.46,504.29 C367.3461895736821,503.39694659157703,364.40028013598914,501.9983152759751,361.73999999999995,500.15000000000003 C358.4822179021487,509.9513538244454,354.2511083240075,519.4018368964457,349.1100000000001,528.3599999999997 L349.99999999999994,529.09 C360.78999999999996,537.5500000000001,374.05999999999995,544.38,388.12999999999994,543.6600000000001 C402.44999999999993,542.9300000000001,413.25999999999993,533.2700000000001,418.7199999999999,520.45 C420.7398985718391,515.5647986719594,422.23820849885226,510.47993030668204,423.18999999999994,505.2799999999999 C420.18999999999994,504.00000000000006,417.18999999999994,502.67,414.25999999999993,501.28000000000003 C406.54623628120845,497.5147869326936,399.1371997380246,493.1549567646829,392.0999999999999,488.23999999999995 Z"></path>
  

  <path name="ABCE" d="M426.38,457.87 C426.08,451.87,425.2,445.87,424.38,439.93 C418.75,438.54,413.03,437.68,407.45,440.11 C400.83,442.99,397.31,449.39,396.15,456.24 L396.03,457.07 C397.14,457.84,398.26,458.59,399.39,459.31 C407.916752009219,464.80142485452023,416.9355582613887,469.4882580961823,426.3300000000001,473.31000000000006 C426.53,468.17,426.63,463,426.38,457.87 Z"></path>
  

  <path name="BE" d="M477.75,422.8 C480.25,433.14,480.33,445.06,468.47,448.26 C463.13000000000005,449.7,457.38000000000005,449.03999999999996,451.96000000000004,447.84 C453.67702045181625,458.9698249130707,454.5893855058374,470.20895925985866,454.69000000000005,481.47000000000025 C462.42351572988446,482.95626293787814,470.3587933853194,483.0645943734472,478.13000000000005,481.78999999999996 C491.88000000000005,479.28999999999996,503.97,470.78999999999996,509.03000000000003,457.47999999999996 C513.64,445.33,511.91,432.28999999999996,508.13000000000005,420.18999999999994 C498.11588641175445,422.07222309141696,487.93841237238007,422.9465880434501,477.75000000000006,422.80000000000007 Z"></path>
  

  <path name="ABE" d="M448.21,446.94 C441.21,445.13,434.48999999999995,442.61,427.53999999999996,440.76 C426.47999999999996,440.46999999999997,425.40999999999997,440.19,424.34999999999997,439.93 C425.2,445.93,426.08,451.83,426.34999999999997,457.87 C426.59999999999997,463.04,426.49999999999994,468.17,426.27,473.31 C429.78,474.72,433.34999999999997,475.99,437,477.09 C442.7931409434624,478.9041262242765,448.6905394671402,480.366787919277,454.6600000000003,481.47 C454.58255384765755,470.21064729522317,453.6935835350986,458.97152262930047,451.9999999999998,447.8399999999979 C450.69,447.57,449.44,447.26,448.21,446.94 Z"></path>
  

  <path name="CD" d="M456,128.42 C455.95,133.88,455.52,139.42,455.17,144.82999999999998 C454.7544355797656,151.05595264780973,454.00334449900834,157.25495770099252,452.91999999999996,163.40000000000055 C453.92,163.15999999999997,454.87,162.90999999999997,455.85,162.67999999999998 C462.45169198130884,161.25933604807665,469.1292752004704,160.21763306588747,475.8500000000008,159.5599999999999 C478.03000000000003,159.30999999999997,480.21000000000004,159.07999999999998,482.39000000000004,158.90999999999997 C485.1,146.56999999999996,486.50000000000006,133.95999999999998,487.72,121.40999999999997 C479.3863268276357,122.65475048471671,471.13232009803994,124.38435221850744,462.9999999999999,126.59 C460.68,127.21,458.34,127.81,456,128.42 Z"></path>
  

  <path name="B" d="M545.75,355.43 C552.85,367.38,556.54,382.52,549.75,395.43 C543.2,407.83,529.75,414.61,516.7,418.18 Q512.49,419.34000000000003,508.18000000000006,420.18 C511.96000000000004,432.28000000000003,513.69,445.32,509.08000000000004,457.47 C504.02000000000004,470.79,491.93000000000006,479.28000000000003,478.18000000000006,481.78000000000003 C470.4087933853194,483.05459437344723,462.47351572988447,482.94626293787815,454.7400000000001,481.46 C454.74000000000007,481.75000000000006,454.74000000000007,482.05,454.74000000000007,482.35 C454.87676089590445,493.53714299088347,454.1714359389242,504.71871636102304,452.6300000000005,515.7999999999972 L452.76000000000005,515.8000000000001 C466.45000000000005,519.9900000000001,480.38000000000005,522.7,494.76000000000005,522.58 C508.9423393602199,522.4729497943424,522.974947071294,519.6698218694701,536.11,514.32 C548.8653420288823,509.0754982378176,560.4703374619093,501.3841312412213,570.27,491.68000000000006 C580.6206980799651,481.4252511937732,588.7851157480849,469.1786246915936,594.27,455.68000000000006 C599.4291909230872,442.90108191892955,602.0545687696838,429.2409658788109,602,415.46 C601.891471030592,401.1299923120354,599.1175993676674,386.9452671702086,593.8200000000002,373.6300000000003 C588.505461317415,360.58562252215734,581.2465287687357,348.42109459106837,572.2900000000001,337.55000000000007 C569.3344614665721,333.9207553744158,566.1866174287549,330.4524521344454,562.8600000000001,327.16 C554.3400000000001,332.76000000000005,545.6100000000001,338.09000000000003,536.5900000000001,342.84000000000003 C540.0143565048267,346.7537628186688,543.080022430831,350.96738006849364,545.7499999999999,355.4299999999999 Z"></path>
  

  <path name="AB" d="M454.69,481.47 C448.7104244838105,480.36796690407186,442.8029732300464,478.90529666713076,436.9999999999998,477.0899999999999 C433.35,475.98999999999995,429.78,474.71999999999997,426.27,473.31 Q426.12,476.44,425.91999999999996,479.59 C425.553157845069,488.20375689002526,424.6312450553961,496.78489441419003,423.1599999999999,505.28000000000026 C432.7730703406517,509.3002786690576,442.5898092824524,512.8150784329869,452.57000000000073,515.8100000000002 C454.1114359389238,504.728716361026,454.8167608959042,493.54714299088664,454.68,482.3599999999998 C454.7,482.06,454.69,481.76,454.69,481.47 Z"></path>
  

  <path name="A" d="M418.72,520.45 C413.26000000000005,533.2700000000001,402.45000000000005,542.9300000000001,388.13000000000005,543.6600000000001 C374.06000000000006,544.3800000000001,360.7900000000001,537.5500000000001,350.00000000000006,529.09 L349.11000000000007,528.36 L348.93000000000006,528.6800000000001 C341.71000000000004,540.86,330.7200000000001,550.46,316.3500000000001,552.6800000000001 C302.3500000000001,554.7800000000001,288.4800000000001,549.6800000000001,278.0300000000001,540.4300000000001 C272.4573422272489,535.3160500630302,267.9155510527894,529.182255853577,264.65000000000015,522.36 C262.8900000000001,523.8000000000001,261.1200000000001,525.22,259.3400000000001,526.6 C251.75754601652102,532.5293888326635,243.82667203098237,537.9991873961635,235.5900000000004,542.9799999999997 C240.75000000000009,555.98,247.2700000000001,568.23,256.2600000000001,578.98 C274.50528111851827,601.1510272035985,300.52002786182624,615.5281624672908,329,619.18 C343.29341704495755,620.9626190191375,357.79871172699393,619.8816057290303,371.66999999999996,616 C384.9614010191938,612.2639014214642,397.37371792649867,605.9132555757109,408.18,597.32 C419.44333846557055,588.2633070358622,428.8839730128126,577.1496916001261,436.0000000000001,564.5699999999999 C442.85412773171197,552.3576088559143,447.8426716378955,539.1885270711448,450.79999999999995,525.5000000000001 C451.52000000000004,522.27,452.11,519.04,452.6,515.81 C442.6198092824517,512.8150784329866,432.803070340651,509.3002786690574,423.18999999999926,505.27999999999975 C422.2382084988524,510.4799303066821,420.7398985718392,515.5647986719595,418.7200000000001,520.45 Z"></path>
  

  <path name="AD" d="M325.29,504.16 C318.76000000000005,511.95000000000005,309.87,519.02,300.24,514.4100000000001 C294.43,511.6300000000001,290.66,506.1400000000001,287.7,500.5900000000001 C280.6006234751725,508.42569583882187,272.8933135850251,515.6882889327047,264.6499999999999,522.3100000000001 C267.9066408286628,529.1297412616252,272.4381167769732,535.2633570208739,277.99999999999994,540.3799999999999 C288.45,549.62,302.35,554.73,316.32,552.63 C330.69,550.46,341.68,540.86,348.9,528.63 L349.08,528.31 C340.2570946691526,521.1912453744061,332.27545006046813,513.0888192584023,325.28999999999996,504.16 Z"></path>
  

  <path name="BC" d="M557.54,322 C552.54,317.25,547.66,312.38,542.27,308.07 C541.6899999999999,307.61,541.09,307.15999999999997,540.5,306.71 C536.5,309.90999999999997,532.28,312.84,528.06,315.59999999999997 C523.7990127529287,318.3623256478069,519.3999701704821,320.9056264428177,514.8799999999997,323.2200000000002 L516.88,324.79999999999995 C524.0250625499589,330.1386491464299,530.6059075977246,336.19342867866646,536.52,342.8699999999998 C545.52,338.11999999999995,554.27,332.78999999999996,562.79,327.18999999999994 Q560.22,324.55,557.54,322 Z"></path>
  

  <path name="AG" d="M264.65,522.31 C261.76941010253097,516.3704394933776,259.25797370310556,510.2588322979675,257.13000000000005,504.0100000000001 C256.02,500.9099999999999,255.04999999999998,497.7799999999999,254.13,494.62999999999994 Q251.51999999999998,496.87999999999994,248.84,499.0899999999999 C241.92325453830375,504.77872037164286,234.3532094208645,509.6228778459066,226.29000000000008,513.5199999999999 C228.83750557358906,523.4795906450471,231.93220228915533,533.2911479773547,235.5600000000003,542.9100000000009 V542.9099999999999 C243.796672030982,537.9291873961635,251.72754601652056,532.4593888326636,259.3099999999997,526.53 C261.12,525.17,262.89,523.75,264.65,522.31 Z"></path>
  

  <path name="C" d="M594.73,298.4 C603.7056342653975,287.5043632126325,610.6279482960866,275.0692714394416,615.1599999999999,261.69999999999993 C624.4289011937148,234.32421825084495,622.1431869412984,204.35355743717145,608.8299999999998,178.7 C602.4157595346585,166.29383779366728,593.5741040345166,155.30297987964468,582.8299999999999,146.38000000000005 C571.9781720560516,137.3794770484779,559.5180909725807,130.51828860872354,546.1099999999998,126.15999999999993 C532.6714218787882,121.86023472903194,518.6172838275767,119.79941160133026,504.5099999999999,120.06 C498.8734224888842,120.17657206852238,493.2494058607549,120.64078721775633,487.6699999999999,121.45000000000005 C486.4499999999999,134,485.0499999999999,146.61,482.3399999999999,158.95 C487.3042425151604,158.48163225722953,492.2999289770565,158.44817153076002,497.27000000000004,158.84999999999997 C511.1699999999999,160.10999999999999,525.7199999999999,165.12,533.6399999999999,177.37 S539.7899999999998,204.79000000000002,534.0199999999999,217.43 C532.2634965327136,221.17431896922224,530.2277501290208,224.78116686673363,527.9299999999998,228.22000000000003 C539.2799999999999,232.22,549.9899999999998,237.57,557.0299999999999,247.95 C565.1399999999999,259.95,564.6999999999998,274.83,557.7999999999998,287.24 C553.5199999999999,294.93,547.3499999999998,301.24,540.4899999999999,306.72 C541.0799999999999,307.17,541.68,307.62,542.2599999999999,308.08000000000004 C547.6499999999999,312.39000000000004,552.5399999999998,317.26000000000005,557.5299999999999,322.01000000000005 Q560.2199999999999,324.59000000000003,562.8199999999998,327.20000000000005 L562.9399999999998,327.13000000000005 C574.76,318.81,585.56,309.59,594.73,298.4 Z"></path>
  

  <path name="E" d="M134.57,174.05 C133.20389227310255,169.78859995544002,132.10180182958192,165.44703154157096,131.27000000000004,161.05000000000015 C128.76999999999998,147.53,129.58999999999997,131.69,139.89,121.42000000000002 C150.02999999999997,111.30000000000001,165.54,110.14000000000001,178.98,112.31000000000002 C183.17043270148585,113.00062208909974,187.31226490830778,113.9592558337432,191.38,115.18000000000002 C193,101.9,198.9,88.29,209.66,80 C221,71.2,236,70,249.29,74.58 C254.518242774917,76.43209880029542,259.46771172386144,78.99263304240738,264,82.19 C268.26717013041,71.78716090462805,273.53526647142075,61.823660196104754,279.73,52.44000000000007 C269.44,42.98,258.17,34.739999999999995,245.29000000000002,29.169999999999998 C219.22791751146605,17.591574557192004,189.664093395001,16.697550728554646,162.95000000000005,26.680000000000007 C149.36350300162877,31.76243329804886,136.94227983624447,39.53420080432025,126.42999999999995,49.53000000000003 C116.48779286742746,59.024282569159524,108.49197350648339,70.36584622514604,102.88999999999997,82.92000000000009 C97.21836356433953,95.98823175834124,93.97214999037861,109.97948003275107,93.31000000000002,124.21000000000004 C92.68708841735261,138.01058094691174,94.11256900478017,151.82729586051212,97.54000000000002,165.21000000000004 C98.54000000000002,169.21,99.65000000000002,173.21,100.88000000000002,177.21 L100.97000000000003,177.21 C112,175.66,123.32,174.23,134.57,174.05 Z"></path>
  

  <path name="DE" d="M282.26,98.71 C285.08,101.80999999999999,287.71999999999997,104.99,290.26,108.22999999999999 C290.98,106.74999999999999,291.7,105.22999999999999,292.43,103.79999999999998 C296.2634458337665,95.73863278350547,300.85052604793464,88.05778460007367,306.13,80.85999999999999 C298.01189186288354,70.8284489965335,289.2180943589801,61.36308868933045,279.8099999999996,52.5299999999996 L279.71,52.43999999999998 C273.5221793627994,61.824463159141885,268.26079497027786,71.78793774077887,264.00000000000006,82.19000000000001 C270.6915015448625,86.98880123991182,276.81729703092594,92.53086813091772,282.26000000000005,98.71000000000004 Z"></path>
  

  <path name="D" d="M306.13,80.86 C309.170157017792,76.81102146754517,312.5998892809774,73.06979984842602,316.37,69.68999999999997 C326.68,60.589999999999996,340.62,55.11,354.37,58.43 S378.3,72.76,384,85.35 C384.53,86.53999999999999,385,87.74,385.55,88.94 C395.55,82.34,406.55,77.94,418.94,79.12 C433.1410572571266,80.60835893039035,445.48612656939855,89.51980119373563,451.37,102.53 C455.22,110.82,456.12,119.53,456.04,128.42000000000002 C458.38,127.81000000000002,460.72,127.21000000000002,463.04,126.59000000000002 C471.1591761065664,124.38586984572285,479.3997834475472,122.65627721905025,487.72,121.41 L487.72,121.17000000000003 C488.94000000000005,107.05000000000003,488.59000000000003,92.96000000000004,484.97,79.17000000000003 C481.40390884510686,65.54432819465713,475.02739290679995,52.815140127641634,466.25,41.79999999999997 C457.69852412111936,31.204409744520405,447.2085411540222,22.333230360504885,435.3399999999998,15.659999999999869 C423.4062526167443,8.912292039473485,410.40496561776905,4.258345392597846,396.8999999999999,1.8999999999999773 C383.28214607112176,-0.5344317756782146,369.34859051711993,-0.6257439115903622,355.7,1.6299999999999955 C341.8624620950572,3.876068009959994,328.57519538265774,8.721373644614346,316.53999999999985,15.910000000000053 C304.4441097825343,23.23952987932438,293.8828428377941,32.8431513969209,285.43999999999994,44.18999999999998 C283.43999999999994,46.87,281.55999999999995,49.629999999999995,279.7099999999999,52.44 L279.80999999999995,52.53 C289.21809435898047,61.363088689330766,298.0118918628839,70.82844899653378,306.13000000000034,80.8600000000003 Z"></path>
  

  <path name="EF" d="M112.9,207.05 C118.18314396199649,205.90097637058702,123.52416242717476,205.03639900653627,128.89999999999947,204.4600000000001 Q137.43,203.46,145.9,203.13 L145.66,202.57 C141.82,193.22,137.66,183.76999999999998,134.57999999999998,174.04999999999998 C123.32999999999998,174.23,112.04999999999998,175.66,100.95999999999998,177.26999999999998 L100.86999999999998,177.26999999999998 C103.72279225243437,186.83516018392848,107.40337018017377,196.13363842137193,111.86999999999986,205.05999999999977 C112.2,205.74,112.55,206.39,112.9,207.05 Z"></path>
  

  <path name="G" d="M226.32,513.52 C221.868618017579,515.6703238139021,217.24599763342124,517.4464536431262,212.5000000000002,518.8299999999998 C199.33,522.5899999999999,184.66,521.55,173.81,512.54 S158.72,489.45,158.26,475.9 Q158.14,472.12,158.32,468.32 L157.85,468.37 C144,469.76,129.35,466.85,119,457 S105.4,432.47,108.12,418.85 C109.2398023649374,413.58544987806806,110.98204962955558,408.47284374316735,113.31000000000006,403.61999999999983 L110.98,403.13 C99.74540103954679,400.7756889437274,88.68598390487386,397.651654194205,77.87999999999974,393.77999999999986 H77.88 C70.4,406,64.32,418.94,60.94,433 C57.563544895525155,446.855390797723,56.904728121096994,461.23389710147984,59.000000000000014,475.34 C61.15701928967867,489.3600371072013,66.14125072842612,502.7953476543779,73.65000000000003,514.8299999999999 C81.21833379494169,527.029913889608,91.24869234942462,537.5166622730555,103.10000000000002,545.6199999999999 C114.89711906033176,553.6131323201746,128.1470798732068,559.2154875459261,142.10000000000014,562.1099999999999 C155.72979557913573,564.893172036186,169.75836011286813,565.1169779968401,183.4699999999999,562.7699999999998 C197.74547583829357,560.2923274508057,211.5668711842121,555.6807009061188,224.47,549.0899999999999 C228.25000000000003,547.1899999999999,231.95000000000002,545.0899999999999,235.60000000000002,542.93 V542.93 C231.96811940114156,533.3048032551466,228.87007753490934,523.4865477286501,226.32000000000022,513.5200000000006 Z"></path>
  

  <path name="FG" d="M113.28,403.58 C117.10473016383136,395.76561105136426,121.59461622945892,388.2947350569184,126.70000000000005,381.24999999999994 C127.98,379.42,129.27,377.58,130.57,375.75 C127.05999999999999,374.89,123.57,373.96,120.03,373 C112.13296540921735,371.03570377007975,104.37574707744665,368.54684603658745,96.81000000000034,365.55000000000007 C89.88329224107375,374.5328128065859,83.53705546817125,383.9486241028029,77.80999999999966,393.74000000000046 C88.61598390487394,397.61165419420496,99.67540103954664,400.7356889437273,110.90999999999966,403.0899999999999 Z"></path>
  

  <path name="F" d="M81,356.32 C69.86,347.21,63.72,333.25,65.75,318.85 C67.68,305.25,76.3,293.51000000000005,87.41,285.79 C88.21,285.24,89.02,284.72,89.83,284.18 C80.72,275.5,73.09,265.52,71.78,252.45000000000002 C70.33,238.07000000000002,77.78,224.92000000000002,89.38,216.82000000000002 C96.53999999999999,211.82000000000002,104.59,208.93000000000004,112.94,207.05 C112.59,206.39000000000001,112.24,205.74,111.94,205.05 C107.47337018017387,196.12363842137216,103.79279225243448,186.8251601839287,100.94000000000003,177.2600000000001 C87,180,73.64,183.87,61,190.24 C48.46770797536131,196.50193975999815,37.18296165773441,204.99769321894433,27.700000000000017,215.31 C18.20191814071974,225.75616182039917,10.88854586364026,237.99611542220583,6.19000000000004,251.30999999999992 C1.4914106517153698,264.65231271492485,-0.5635143274952412,278.78204480338127,0.14000000000001478,292.9100000000001 C1.5388047030727137,321.47541589331274,14.002068423323706,348.3745462247898,34.88999999999986,367.90999999999985 C45.19626800813296,377.52152182551686,57.119489146608416,385.23674640660306,70.11000000000004,390.70000000000005 C72.67,391.78999999999996,75.26,392.78,77.85,393.7 C83.57705546817158,383.9086241028023,89.92329224107414,374.4928128065854,96.85000000000042,365.5099999999993 C91.155747398668,363.21758227326836,85.81843053569511,360.1229487104469,80.99999999999996,356.31999999999994 Z"></path>
  

  <path name="BCF" d="M509.29,289.85 C503.78000000000003,294.07000000000005,497.84000000000003,297.69,492.37,301.97 C490.95491039278033,303.06341744197374,489.59648090630714,304.2282623824631,488.30000000000024,305.4599999999999 C492.48785701634176,307.6010518186888,496.56015347537175,309.96098099617586,500.49999999999994,312.53000000000003 C505.5,315.83000000000004,510.15,319.53000000000003,514.88,323.19000000000005 C519.3999701704824,320.87562644281763,523.799012752929,318.3323256478068,528.0600000000004,315.5699999999998 C532.28,312.81000000000006,536.51,309.88000000000005,540.5,306.68000000000006 C531.3085713925307,299.76280344204645,521.5887663912002,293.5771690242751,511.43000000000006,288.18000000000006 C510.71,288.75,510,289.31,509.29,289.85 Z"></path>
  

  <path name="DF" d="M323.33,105.48 C325.9401560232346,101.93756034856585,329.3719170510562,99.08233517341827,333.33,97.16 C339.55702787887014,94.39015073808818,346.8388169989649,95.63665418443159,351.78999999999996,100.32 C355.14,103.32,357.28999999999996,107.19999999999999,359.05999999999995,111.25999999999999 C365.6802684682251,104.69390122922746,372.69317628043405,98.53590027412588,380.06000000000006,92.81999999999985 Q382.72999999999996,90.82,385.5199999999999,88.94 C385.00999999999993,87.74,384.5199999999999,86.53999999999999,383.9699999999999,85.35 C378.3099999999999,72.75999999999999,368.1599999999999,61.75999999999999,354.37999999999994,58.42999999999999 S326.68999999999994,60.58999999999999,316.37999999999994,69.69 C312.60988928097726,73.06979984842602,309.18015701779194,76.8110214675452,306.1399999999999,80.86000000000004 C306.5999999999999,81.44,307.06999999999994,82.01,307.5199999999999,82.59 C313.19915919796506,89.9291402225129,318.4768801892818,97.57031881145917,323.32999999999987,105.47999999999985 Z"></path>
  

  <path name="DEF" d="M306.4,131.41 C310.62,124.99,314.4,118.28,318.71,111.91 C320.18,109.75,321.71,107.55,323.33,105.47999999999999 C318.4736353955875,97.57008225027852,313.1925730250912,89.92889908588782,307.50999999999965,82.58999999999958 C307.06,82.00999999999999,306.59,81.43999999999998,306.13,80.85999999999999 C300.85052604793464,88.05778460007367,296.2634458337665,95.73863278350547,292.43,103.79999999999995 C291.7,105.27999999999999,290.98,106.79999999999998,290.26,108.22999999999999 C296.0632694478196,115.717377437934,301.38402817479385,123.56658208852365,306.18999999999977,131.7299999999996 C306.26,131.62,306.34,131.52,306.4,131.41 Z"></path>
  

  <path name="DG" d="M420.28,120.65 C423.83,125.65,424.65,132.29000000000002,425,138.37 C434.93,133.99,445.49,131.15,456,128.37 C456.08,119.52000000000001,455.18,110.77000000000001,451.33,102.48 C445.4324539710116,89.48920820603314,433.08997104196783,80.5986623774034,418.90000000000003,79.12000000000003 C406.54999999999995,77.93,395.46999999999997,82.34,385.51,88.94 C389.8270144798513,98.91234867381493,393.11407491625096,109.29959368180553,395.31999999999994,119.93999999999994 C404.06,115.17,414.35,112.28,420.28,120.65 Z"></path>
  

  <path name="AEG" d="M190.75,152.82 C193.21,153.54,195.49,154.32,197.42,154.95999999999998 C204.54,157.32,211.56,159.95999999999998,218.76999999999998,161.95999999999998 L219.2,162.07999999999998 C217.71508973443892,152.11950237000542,217.1327246159737,142.04525520575137,217.45999999999998,131.98 C217.54999999999998,129.92,217.60999999999999,127.82999999999998,217.77999999999997,125.77 C209.28179184318867,121.52163441245392,200.45281035228948,117.96997594906944,191.38000000000008,115.15000000000003 S191.37999999999997,115.24,191.37999999999997,115.27999999999999 C190.05250376698285,127.74960431133438,189.84166573415243,140.312873759675,190.74999999999997,152.81999999999988 Z"></path>
  

  <path name="AE" d="M222.7,112.15 C227.23999999999998,107.08000000000001,234.31,105.99000000000001,240.60999999999999,108.04 C245.45,109.61,249.17,112.68,252.77999999999997,115.98 C255.76523919793374,104.4929876236154,259.513563581319,93.21794770033111,264.0000000000001,82.22999999999958 V82.23 C259.4739204827656,79.03424890224298,254.5312806239912,76.47376630692145,249.30999999999995,74.62 C236,70,221,71.2,209.66,80 C198.9,88.29,193,101.9,191.38,115.19 C200.45281035228936,118.00997594906946,209.28179184318856,121.56163441245391,217.77999999999986,125.80999999999997 C218.18,120.86,219.21,116.05,222.7,112.15 Z"></path>
  

  <path name="ADEF" d="M291.63,142.47 C298.11,142.3,302.85,136.75,306.19,131.73 C301.38402817479414,123.56658208852409,296.06326944781995,115.71737743793443,290.26000000000033,108.23000000000047 C285.6161172970429,117.58093975487883,281.5029286920686,127.1861699630858,277.9400000000003,136.9999999999995 C282,140,286.61,142.61,291.63,142.47 Z"></path>
  

  <path name="ADE" d="M252.78,116 C254.11,117.22,255.42,118.47,256.78,119.69 C262.42999999999995,124.78,268.46999999999997,129.45,274.38,134.24 C275.51,135.15,276.7,136.10000000000002,277.94,137.01000000000002 C281.5032774147551,127.19956425815842,285.61646218302775,117.59768163352176,290.25999999999954,108.25000000000092 C287.71999999999997,105.01000000000002,285.08,101.83000000000001,282.26,98.73000000000002 C276.81841740119785,92.54386371095457,270.6925789704138,86.99504839632321,264.0000000000001,82.19000000000008 V82.19 C259.511036022376,93.19748476847427,255.76268490344594,104.4926497712394,252.78000000000003,115.9999999999999 Z"></path>
  

  <path name="DFG" d="M359,111.26 C359.94,113.44000000000001,360.78,115.68,361.62,117.88000000000001 C364.38,125.05000000000001,366.62,132.43,369.5,139.56 L369.63,139.86 C374.20385934006094,135.2142473280723,379.1174562222218,130.91568570190978,384.32999999999953,127.00000000000041 C387.82656171921434,124.36466061127432,391.50208745294225,121.97556888435116,395.33000000000004,119.84999999999997 C393.1207943284785,109.22662984708184,389.83378413659113,98.856296978691,385.52,88.90000000000009 Q382.72999999999996,90.74,380.06,92.77999999999999 C372.67145964586126,98.50688520064676,365.63844852937467,104.67830236269202,358.9999999999991,111.26000000000079 Z"></path>
  

  <path name="ABCEF" d="M448.06,242 C441.95,253.35,437.28000000000003,267.28,445.92,278.62 C450.35,284.44,456.77000000000004,288.35,463.03000000000003,291.92 L463.18,292.01 C468.79,287.71999999999997,475.1,284.11,480.44,280.15999999999997 C482.71999999999997,278.47999999999996,484.9,276.71999999999997,487.04,274.9 C481.73,271.4,476.83000000000004,265.9,476.28000000000003,259.29999999999995 C475.8,253.73999999999995,477.87,248.38999999999996,480.39000000000004,243.45999999999995 C472.48227457679764,242.5052993521434,464.52512764122844,242.0177863632248,456.55999999999995,241.99999999999997 C453.73,241.94,450.89,242,448.06,242 Z"></path>
  

  <path name="CDG" d="M425.1,140.46 C425.43,147.72,425.1,154.97,424.82000000000005,162.23000000000002 C424.6700000000001,165.45000000000002,424.37000000000006,168.76000000000002,424.36000000000007,172.04000000000002 C433.7800000000001,168.8,443.2200000000001,165.81000000000003,452.9200000000001,163.40000000000003 C454.0033444990085,157.2549577009921,454.7544355797657,151.0559526478093,455.1700000000001,144.8299999999999 C455.5200000000001,139.38000000000005,455.95000000000005,133.83000000000004,456.00000000000006,128.42000000000004 C445.49000000000007,131.15000000000003,434.93000000000006,133.99000000000004,425.00000000000006,138.42000000000004 C425,139.08,425.07,139.77,425.1,140.46 Z"></path>
  

  <path name="BCEF" d="M460.57,218.37 C456.57,226.26,452.4,234.03,448.19,241.81 L448.06,242.04 C450.89,241.97,453.73,241.94,456.56,242.04 C464.52611262659656,242.07437729894866,472.48326316723484,242.5785861666097,480.38999999999976,243.54999999999995 C481.05,242.26,481.74,240.98999999999998,482.39,239.74999999999997 C485.9,233.43999999999997,489.66999999999996,227.28999999999996,493.18,220.98999999999998 L493.6,220.20999999999998 Q487.6,219.45,481.55,218.98999999999998 C474.56,218.4,467.57,218.31,460.57,218.37 Z"></path>
  

  <path name="ACEF" d="M476.28,259.34 C476.83,265.9,481.72999999999996,271.44,487.03999999999996,274.94 C495.0206167598284,267.9677078581106,502.5241545007906,260.46751096209084,509.49999999999955,252.4900000000005 C506.22078123152886,250.8055881124182,502.8372114452644,249.3325829043801,499.3699999999998,248.07999999999993 C493.22192751771746,245.86739233790726,486.8509553050848,244.33165272033582,480.36999999999983,243.5 C477.87,248.43,475.8,253.78,476.28,259.34 Z"></path>
  

  <path name="BCDEG" d="M441.87,191.8 C435,191.61,428.4,189.22,425.87,182.29000000000002 C424.7665828480809,178.9752203264389,424.2554459938891,175.49204269092021,424.36,171.99999999999997 Q419.22,173.77,414.05,175.62 C408.05,177.75,402.27000000000004,180.22,396.39,182.62 C395.71,191.68,395.96,200.83,401.19,208.14000000000001 C408.52,218.38000000000002,421.7,218.99,433.46,218.84 C438.127773144818,210.151871249726,442.1389689112725,201.1266807752032,445.4599999999999,191.84000000000003 C444.28,191.84,443.08,191.84,441.87,191.8 Z"></path>
  

  <path name="BCDE" d="M439,218.77 C446.21,218.66,453.37,218.43,460.54,218.37 C462.99,213.5,465.34000000000003,208.59,467.54,203.6 Q470.54,196.79,473.14000000000004,189.79999999999998 C469.48,189.96999999999997,465.81000000000006,190.43999999999997,462.21000000000004,190.79999999999998 C456.65000000000003,191.32,451.04,191.79999999999998,445.44000000000005,191.85 C442.1189689112727,201.1366807752031,438.1077731448181,210.16187124972592,433.4400000000001,218.8499999999999 C435.37,218.84,437.23,218.8,439,218.77 Z"></path>
  

  <path name="BCE" d="M460.57,218.37 C467.57,218.31,474.57,218.37,481.57,218.94 Q487.57,219.39,493.62,220.16 C496.62,214.68,499.18,208.55,497.62,202.22 C495.97,195.68,489.94,191.84,483.62,190.48 C480.1778058283082,189.79892310015708,476.66140186756553,189.57032322508013,473.16,189.79999999999998 Q470.56,196.79999999999998,467.56,203.6 C465.37,208.59,463,213.5,460.57,218.37 Z"></path>
  

  <path name="EFG" d="M172.25,203.53 L174.25,203.71 C173.97,203.04000000000002,173.69,202.38,173.43,201.71 C170.57,194.71,167.54000000000002,187.78,165.19,180.60000000000002 C164.7,179.10000000000002,164.19,177.55,163.79,175.97000000000003 C156.45999999999998,174.97000000000003,149.09,174.33000000000004,141.68,174.07000000000002 C139.32,173.99,136.95000000000002,173.99,134.58,174.07000000000002 C137.66000000000003,183.79000000000002,141.82000000000002,193.24,145.66000000000003,202.59000000000003 L145.90000000000003,203.15000000000003 C154.6834435507268,202.77765943674493,163.4809461208577,202.90453044155137,172.25000000000014,203.53000000000003 Z"></path>
  

  <path name="ACFG" d="M162.17,364 C160.61999999999998,358.18,154.5,355.08,149.17,352.88 C145.75679332338734,356.2529904762672,142.55092856603713,359.82953334618605,139.5700000000001,363.5899999999999 C136.48,367.59,133.51,371.65999999999997,130.57,375.78 C139.69151546890834,378.1234268821547,148.98902636895247,379.71871922004004,158.37,380.54999999999995 C161,375.48,163.61,369.4,162.17,364 Z"></path>
  

  <path name="BCG" d="M192.3,457.53 C192.9,450.84999999999997,194,444.21999999999997,194.42000000000002,437.53 C194.56,435.29999999999995,194.71,432.95,194.71,430.58 C188.85537176496325,432.1488858684851,182.9156306713524,433.3809063651363,176.91999999999965,434.27000000000004 C172.74685125379978,434.9210355577793,168.5331795218882,435.2785794715894,164.31000000000003,435.34 C161.0159840705416,446.0649838690094,159.00199541191827,457.14192149143776,158.31000000000006,468.3399999999999 C169.77437174004143,467.0113761414172,181.0793357729474,464.55275581544595,192.0599999999999,461 C192.11,459.85,192.2,458.68,192.3,457.53 Z"></path>
  

  <path name="CFG" d="M147.43,401.81 C150.43,395.41,153.77,389.18,157.09,382.95 C157.5,382.17,157.94,381.36,158.37,380.52 C148.98902636895247,379.68871922004007,139.69151546890834,378.09342688215474,130.57,375.75 C129.26999999999998,377.58,127.97999999999999,379.42,126.69999999999999,381.25 C121.59461622945888,388.2947350569185,117.1047301638313,395.7656110513643,113.27999999999994,403.58000000000004 C123.60536718494156,405.7955990927876,134.0642234109609,407.33553289035865,144.59000000000034,408.19000000000005 C145.47,406,146.46,403.87,147.43,401.81 Z"></path>
  

  <path name="CG" d="M142.19,422.15 C141.54,417.35999999999996,142.81,412.65999999999997,144.59,408.15 C134.06422341096058,407.2955328903586,123.60536718494124,405.7555990927875,113.27999999999966,403.5399999999999 C110.95204962955552,408.3928437431674,109.20980236493736,413.50544987806813,108.08999999999997,418.77000000000004 C105.37,432.39,108.72,447.14,118.97,456.91999999999996 S143.97,469.71999999999997,157.85,468.33 L158.32,468.28 C159.01199541191824,457.081921491438,161.02598407054157,446.0049838690096,164.31999999999996,435.2800000000002 C154.2,435.37,143.64,432.88,142.19,422.15 Z"></path>
  

  <path name="BG" d="M221.22,481.43 C218.0441311502953,483.19919920324804,214.5867082015718,484.40692913739116,211,485.00000000000006 C204.62,485.89,198.46,483.54,195.15,477.83 C192.20000000000002,472.74,191.75,466.83,192.04,461.04999999999995 C181.06083858091196,464.58514865927714,169.75928926385703,467.0270068252917,158.29999999999995,468.34 Q158.11999999999998,472.14,158.23999999999998,475.91999999999996 C158.7,489.46999999999997,163.04999999999998,503.62999999999994,173.79,512.56 S199.31,522.6099999999999,212.48,518.8499999999999 C217.22599763342106,517.4664536431262,221.84861801757881,515.6903238139021,226.29999999999978,513.54 C225.55999999999997,510.53999999999996,224.86999999999998,507.53999999999996,224.29999999999998,504.53999999999996 C222.81462552190368,496.90477888122496,221.7861314165519,489.18773382451104,221.22,481.43 Z"></path>
  

  <path name="ABDG" d="M275.79,473.47 C273.91,469.47,271.54,465.64000000000004,267.69,463.35 C261.41,459.59000000000003,254.05,462.35,248.23,465.64000000000004 L248.14,465.69000000000005 C249.56686006091383,475.4466685079788,251.57036842195083,485.11025716938065,254.13999999999982,494.6299999999992 C261.87105228005805,488.122911207161,269.10766107182667,481.0500870947442,275.78999999999985,473.47000000000025 Z"></path>
  

  <path name="ABG" d="M230.54,476 C227.47,477.8,224.41,479.8,221.22,481.48 C221.78692192118945,489.2310325761138,222.81541291453664,496.9413757697463,224.29999999999973,504.5699999999985 C224.89000000000001,507.57,225.58,510.57,226.3,513.5699999999999 C234.36320942086445,509.67287784590667,241.9332545383038,504.8287203716428,248.85000000000008,499.1399999999999 Q251.54000000000002,496.93999999999994,254.14000000000001,494.67999999999995 C251.570368421951,485.1602571693812,249.56686006091397,475.4966685079794,248.14000000000013,465.7400000000004 C242.21,469,236.39,472.5,230.54,476 Z"></path>
  

  <path name="BEFG" d="M177,220.31 C178.74,214.89000000000001,176.36,208.88,174.21,203.71 L172.21,203.53 C163.438002662577,202.89748460987764,154.63715028696268,202.763936015407,145.84999999999923,203.12999999999994 C150.03931337217563,212.91313450825504,155.38035844989795,222.1617700765297,161.76000000000013,230.68000000000023 C167.5,229.08,175.05,226.45,177,220.31 Z"></path>
  

  <path name="EG" d="M141.67,174.09 C149.07999999999998,174.35,156.45,175.02,163.77999999999997,175.99 C162.30999999999997,170.59,161.45999999999998,164.85000000000002,163.06999999999996,159.48000000000002 C166.66999999999996,147.48000000000002,180.30999999999997,149.72000000000003,190.74999999999997,152.82000000000002 C189.8374086063449,140.32674190220962,190.0415516192701,127.7769665174607,191.35999999999996,115.32000000000009 S191.35999999999999,115.23000000000002,191.35999999999999,115.19000000000003 C187.29226490830777,113.96925583374322,183.15043270148584,113.01062208909975,178.95999999999998,112.32000000000004 C165.51999999999998,110.15000000000002,150.01,111.32000000000002,139.86999999999998,121.43000000000002 C129.56999999999996,131.70000000000002,128.74999999999997,147.54000000000002,131.24999999999997,161.06000000000003 C132.08180182958182,165.4570315415708,133.18389227310246,169.79859995543984,134.5499999999999,174.0599999999998 C136.94,174,139.31,174,141.67,174.09 Z"></path>
  

  <path name="ADG" d="M287.7,500.59 L286.99,499.22999999999996 C283.76,492.90999999999997,281.21000000000004,486.22999999999996,278.47,479.73999999999995 C277.62,477.73999999999995,276.77000000000004,475.55999999999995,275.79,473.46999999999997 C269.1140607227579,481.0493468270674,261.88415588981286,488.12215247963866,254.16000000000008,494.62999999999994 C255.05,497.78,256.02000000000004,500.90999999999997,257.16,504.01 C259.28797370310554,510.2588322979672,261.7994101025308,516.3704394933773,264.67999999999984,522.3099999999995 C272.91295031714355,515.6870642208522,280.6101959045028,508.42450235475997,287.69999999999993,500.59 Z"></path>
  

  <path name="BEF" d="M139.17,235.84 C146.58999999999997,234.39000000000001,154.01999999999998,232.84,161.29999999999998,230.84 L161.79999999999998,230.70000000000002 C155.4203584498978,222.18177007652952,150.07931337217548,212.93313450825482,145.88999999999984,203.14999999999984 Q137.39999999999998,203.5,128.89,204.48000000000002 C123.51416242717528,205.05639900653622,118.173143961997,205.92097637058697,112.8900000000005,207.06999999999994 C118.43928179400638,217.49607267603574,124.58618666966743,227.59288981020134,131.3000000000005,237.31000000000088 C133.94,236.78,136.58,236.35,139.17,235.84 Z"></path>
  

  <path name="AF" d="M119.4,340.44 C115.99439923699457,338.4819048536911,112.88347039869294,336.0510708480052,110.16,333.21999999999997 C105.55000000000001,328.30999999999995,103.81000000000002,322.03,106.91000000000001,315.82 C109.09000000000002,311.45,112.85000000000001,308.11,116.85000000000001,305.21999999999997 C108.19146656869171,299.6528834283533,99.98898633572905,293.40655930476,92.31999999999994,286.53999999999996 C91.46000000000001,285.76,90.62,284.97999999999996,89.79,284.17999999999995 C88.98,284.71999999999997,88.17,285.23999999999995,87.37,285.78999999999996 C76.26,293.51,67.64,305.24999999999994,65.71000000000001,318.84999999999997 C63.71000000000001,333.24999999999994,69.82000000000001,347.21,80.96000000000001,356.31999999999994 C85.7759772593476,360.13701602534115,91.11341383346549,363.24518886944895,96.81,365.54999999999995 C98.38,363.54999999999995,99.96000000000001,361.54999999999995,101.58,359.54999999999995 C107.15814988702735,352.8519370199853,113.10748790143154,346.4719230213734,119.39999999999932,340.4400000000008 Z"></path>
  

  <path name="AFG" d="M149.16,352.85 L147.16,352.06 C138.28,348.57,127.97,345.54,119.38,340.44 C113.08777225979404,346.46868847469415,107.13843947965455,352.8453582895463,101.55999999999943,359.54000000000065 C99.94,361.54,98.36,363.54,96.79,365.54 C104.35224374416984,368.5398177038081,112.10611218450691,371.03201324732015,120.00000000000014,373 C123.52,374,127,374.89,130.54,375.75 C133.47,371.63,136.44,367.53,139.54,363.56 C142.52738256017727,359.79895518845115,145.73993714325087,356.22240013806464,149.15999999999977,352.85000000000025 Z"></path>
  

  <path name="ABF" d="M116.85,305.22 C118.63,303.94000000000005,120.44999999999999,302.75,122.19999999999999,301.6 C127.72999999999999,297.98,133.53,294.77000000000004,139.2,291.44 C137.06,290.02,134.95999999999998,288.56,132.86999999999998,287.06 C127.33999999999997,283.06,121.76999999999998,278.73,117.36999999999998,273.49 C116.69999999999997,272.7,116.03999999999998,271.86,115.36999999999998,270.98 C106.39991694631652,274.50376990784036,97.8094810657669,278.9263032004791,89.73000000000006,284.17999999999995 C90.55999999999997,284.98,91.39999999999998,285.76,92.25999999999998,286.54 C99.94814575612595,293.4091299425937,108.17076960482157,299.65551520056994,116.84999999999995,305.2199999999999 Z"></path>
  

  <path name="BF" d="M108.86,254.8 C108.71,247.8,113.86,243.18,119.86,240.55 C123.54947082937845,239.03804807541326,127.39683873759455,237.94455030899786,131.32999999999998,237.29000000000002 C124.61618666966689,227.57288981020054,118.46928179400595,217.4760726760349,112.91999999999962,207.0499999999994 C104.57000000000002,208.93,96.52000000000001,211.85000000000002,89.36000000000001,216.82000000000002 C77.72000000000001,224.92000000000002,70.36000000000001,238.07000000000002,71.76000000000002,252.45000000000002 C73.07000000000002,265.52000000000004,80.70000000000002,275.5,89.81000000000002,284.18 C97.88396461831728,278.93441776949555,106.46761761319335,274.5186275090558,115.42999999999994,271.0000000000001 C112,266.28,109,260.51,108.86,254.8 Z"></path>
  
  <g>
    <rect name="A_title" x="340" y="640" fill="red">A</rect>
    <rect name="B_title" x="550" y="530" fill="red">B</rect>
    <rect name="C_title" x="610" y="150" fill="red">C</rect>
    <rect name="D_title" x="400" y="-15" fill="red">D</rect>
    <rect name="E_title" x="120" y="30"  fill="red">E</rect>
    <rect name="F_title" x="-20" y="300"  fill="red">F</rect>
    <rect name="G_title" x="100" y="570" fill="red">G</rect>
  </g>
  </svg>